<svg width="299" height="19" viewBox="0 0 299 19" fill="none" xmlns="http://www.w3.org/2000/svg">
<path d="M6.10227 18.1875C5.13636 18.1875 4.25852 17.9375 3.46875 17.4375C2.67898 16.9375 2.0483 16.1875 1.5767 15.1875C1.10511 14.1875 0.869318 12.946 0.869318 11.4631C0.869318 9.9233 1.11364 8.65625 1.60227 7.66193C2.09091 6.66761 2.73011 5.93182 3.51989 5.45454C4.31534 4.97727 5.17045 4.73864 6.08523 4.73864C6.77273 4.73864 7.3608 4.85795 7.84943 5.09659C8.33807 5.32955 8.74148 5.63068 9.05966 6C9.37784 6.36932 9.61932 6.75284 9.78409 7.15057H9.86932V0.545454H14.0369V18H9.91193V15.8778H9.78409C9.60795 16.2812 9.35795 16.6591 9.03409 17.0114C8.71023 17.3636 8.30398 17.6477 7.81534 17.8636C7.33239 18.0795 6.76136 18.1875 6.10227 18.1875ZM7.55114 14.9403C8.05682 14.9403 8.48864 14.7983 8.84659 14.5142C9.20455 14.2244 9.48011 13.8182 9.6733 13.2955C9.86648 12.7727 9.96307 12.1591 9.96307 11.4545C9.96307 10.7386 9.86648 10.1222 9.6733 9.60511C9.4858 9.08807 9.21023 8.69034 8.84659 8.41193C8.48864 8.13352 8.05682 7.99432 7.55114 7.99432C7.03409 7.99432 6.59659 8.13636 6.23864 8.42045C5.88068 8.70455 5.60795 9.10511 5.42045 9.62216C5.23864 10.1392 5.14773 10.75 5.14773 11.4545C5.14773 12.1591 5.24148 12.7727 5.42898 13.2955C5.61648 13.8182 5.88636 14.2244 6.23864 14.5142C6.59659 14.7983 7.03409 14.9403 7.55114 14.9403ZM22.7834 18.2472C21.4084 18.2472 20.2266 17.9659 19.2379 17.4034C18.255 16.8352 17.4964 16.0455 16.9624 15.0341C16.4339 14.017 16.1697 12.8381 16.1697 11.4972C16.1697 10.1506 16.4339 8.97159 16.9624 7.96023C17.4964 6.94318 18.255 6.15341 19.2379 5.59091C20.2266 5.02273 21.4084 4.73864 22.7834 4.73864C24.1584 4.73864 25.3374 5.02273 26.3203 5.59091C27.3089 6.15341 28.0675 6.94318 28.5959 7.96023C29.13 8.97159 29.397 10.1506 29.397 11.4972C29.397 12.8381 29.13 14.017 28.5959 15.0341C28.0675 16.0455 27.3089 16.8352 26.3203 17.4034C25.3374 17.9659 24.1584 18.2472 22.7834 18.2472ZM22.8089 15.1023C23.3089 15.1023 23.7322 14.9489 24.0788 14.642C24.4254 14.3352 24.6896 13.9091 24.8714 13.3636C25.0589 12.8182 25.1527 12.1875 25.1527 11.4716C25.1527 10.7443 25.0589 10.108 24.8714 9.5625C24.6896 9.01705 24.4254 8.59091 24.0788 8.28409C23.7322 7.97727 23.3089 7.82386 22.8089 7.82386C22.2919 7.82386 21.8544 7.97727 21.4964 8.28409C21.1442 8.59091 20.8743 9.01705 20.6868 9.5625C20.505 10.108 20.4141 10.7443 20.4141 11.4716C20.4141 12.1875 20.505 12.8182 20.6868 13.3636C20.8743 13.9091 21.1442 14.3352 21.4964 14.642C21.8544 14.9489 22.2919 15.1023 22.8089 15.1023ZM35.6996 10.5341V18H31.532V4.90909H35.495V7.3125H35.6399C35.9297 6.51136 36.424 5.88352 37.1229 5.42898C37.8217 4.96875 38.6541 4.73864 39.62 4.73864C40.5405 4.73864 41.3388 4.94602 42.0149 5.36079C42.6967 5.76989 43.2251 6.34375 43.6001 7.08239C43.9808 7.81534 44.1683 8.6733 44.1626 9.65625V18H39.995V10.4744C40.0007 9.74716 39.8161 9.17898 39.4411 8.76989C39.0717 8.3608 38.5575 8.15625 37.8984 8.15625C37.4609 8.15625 37.0746 8.25284 36.7393 8.44602C36.4098 8.63352 36.1541 8.90341 35.9723 9.25568C35.7962 9.60795 35.7053 10.0341 35.6996 10.5341ZM54.1321 4.90909V7.97727H45.8736V4.90909H54.1321ZM47.6037 1.77273H51.7713V13.8835C51.7713 14.1392 51.8111 14.3466 51.8906 14.5057C51.9759 14.6591 52.098 14.7699 52.2571 14.8381C52.4162 14.9006 52.6065 14.9318 52.8281 14.9318C52.9872 14.9318 53.1548 14.9176 53.331 14.8892C53.5128 14.8551 53.6491 14.8267 53.7401 14.804L54.3707 17.8125C54.1719 17.8693 53.8906 17.9403 53.527 18.0256C53.169 18.1108 52.7401 18.1648 52.2401 18.1875C51.2628 18.233 50.4247 18.1193 49.7259 17.8466C49.0327 17.5682 48.5014 17.1364 48.1321 16.5511C47.7685 15.9659 47.5923 15.2301 47.6037 14.3438V1.77273ZM60.2663 0.545454V2.48864C60.2663 3.02841 60.1584 3.57386 59.9425 4.125C59.7322 4.67045 59.4567 5.18182 59.1158 5.65909C58.7749 6.13636 58.4141 6.53977 58.0334 6.86932L56.2607 5.89773C56.522 5.46591 56.755 4.98011 56.9595 4.44034C57.1641 3.89489 57.2663 3.24716 57.2663 2.49716V0.545454H60.2663ZM70.4915 4.90909V7.97727H62.233V4.90909H70.4915ZM63.9631 1.77273H68.1307V13.8835C68.1307 14.1392 68.1705 14.3466 68.25 14.5057C68.3352 14.6591 68.4574 14.7699 68.6165 14.8381C68.7756 14.9006 68.9659 14.9318 69.1875 14.9318C69.3466 14.9318 69.5142 14.9176 69.6903 14.8892C69.8722 14.8551 70.0085 14.8267 70.0994 14.804L70.7301 17.8125C70.5313 17.8693 70.25 17.9403 69.8864 18.0256C69.5284 18.1108 69.0994 18.1648 68.5994 18.1875C67.6222 18.233 66.7841 18.1193 66.0852 17.8466C65.392 17.5682 64.8608 17.1364 64.4915 16.5511C64.1278 15.9659 63.9517 15.2301 63.9631 14.3438V1.77273ZM81.9418 10.5341V18H77.7741V0.545454H81.8054V7.3125H81.9503C82.2457 6.50568 82.7287 5.875 83.3991 5.42045C84.0753 4.96591 84.902 4.73864 85.8793 4.73864C86.7997 4.73864 87.6009 4.94318 88.2827 5.35227C88.9645 5.75568 89.4929 6.3267 89.8679 7.06534C90.2486 7.80398 90.4361 8.66761 90.4304 9.65625V18H86.2628V10.4744C86.2685 9.74716 86.0866 9.17898 85.7173 8.76989C85.348 8.3608 84.8281 8.15625 84.1577 8.15625C83.7202 8.15625 83.3338 8.25284 82.9986 8.44602C82.669 8.63352 82.4105 8.90341 82.223 9.25568C82.0412 9.60795 81.9474 10.0341 81.9418 10.5341ZM96.7223 18.2216C95.8871 18.2216 95.1456 18.0824 94.4979 17.804C93.8558 17.5199 93.3473 17.0937 92.9723 16.5256C92.603 15.9517 92.4183 15.233 92.4183 14.3693C92.4183 13.642 92.5462 13.0284 92.8018 12.5284C93.0575 12.0284 93.4098 11.6222 93.8587 11.3097C94.3075 10.9972 94.8246 10.7614 95.4098 10.6023C95.995 10.4375 96.62 10.3267 97.2848 10.2699C98.0291 10.2017 98.6286 10.1307 99.0831 10.0568C99.5376 9.97727 99.8672 9.86648 100.072 9.72443C100.282 9.5767 100.387 9.36932 100.387 9.10227V9.05966C100.387 8.62216 100.237 8.28409 99.9354 8.04545C99.6342 7.80682 99.228 7.6875 98.7166 7.6875C98.1655 7.6875 97.7223 7.80682 97.3871 8.04545C97.0518 8.28409 96.8388 8.61364 96.7479 9.03409L92.9041 8.89773C93.0178 8.10227 93.3104 7.39205 93.782 6.76705C94.2592 6.13636 94.9126 5.64205 95.7422 5.28409C96.5774 4.92045 97.5803 4.73864 98.7507 4.73864C99.5859 4.73864 100.356 4.83807 101.06 5.03693C101.765 5.23011 102.379 5.5142 102.901 5.8892C103.424 6.25852 103.827 6.71307 104.112 7.25284C104.401 7.79261 104.546 8.40909 104.546 9.10227V18H100.626V16.1761H100.523C100.29 16.6193 99.9922 16.9943 99.6286 17.3011C99.2706 17.608 98.8473 17.8381 98.3587 17.9915C97.8757 18.1449 97.3303 18.2216 96.7223 18.2216ZM98.0092 15.4943C98.4581 15.4943 98.8615 15.4034 99.2195 15.2216C99.5831 15.0398 99.8729 14.7898 100.089 14.4716C100.305 14.1477 100.413 13.7727 100.413 13.3466V12.1023C100.293 12.1648 100.148 12.2216 99.978 12.2727C99.8132 12.3239 99.6314 12.3722 99.4325 12.4176C99.2337 12.4631 99.0291 12.5028 98.8189 12.5369C98.6087 12.571 98.407 12.6023 98.2138 12.6307C97.8217 12.6932 97.4865 12.7898 97.2081 12.9205C96.9354 13.0511 96.7251 13.2216 96.5774 13.4318C96.4354 13.6364 96.3643 13.8807 96.3643 14.1648C96.3643 14.5966 96.5178 14.9261 96.8246 15.1534C97.1371 15.3807 97.532 15.4943 98.0092 15.4943ZM119.325 4.90909L114.833 18H110.06L105.577 4.90909H109.967L112.379 13.9261H112.515L114.935 4.90909H119.325ZM126.62 18.2472C125.251 18.2472 124.069 17.9773 123.075 17.4375C122.086 16.892 121.325 16.1165 120.79 15.1108C120.262 14.0994 119.998 12.8977 119.998 11.5057C119.998 10.1534 120.265 8.97159 120.799 7.96023C121.333 6.94318 122.086 6.15341 123.058 5.59091C124.029 5.02273 125.174 4.73864 126.492 4.73864C127.424 4.73864 128.276 4.88352 129.049 5.17329C129.822 5.46307 130.489 5.89205 131.052 6.46023C131.614 7.02841 132.052 7.73011 132.364 8.56534C132.677 9.39489 132.833 10.3466 132.833 11.4205V12.4602H121.455V10.0398H128.955C128.95 9.59659 128.844 9.2017 128.64 8.85511C128.435 8.50852 128.154 8.23864 127.796 8.04545C127.444 7.84659 127.038 7.74716 126.577 7.74716C126.112 7.74716 125.694 7.85227 125.325 8.0625C124.955 8.26705 124.663 8.5483 124.447 8.90625C124.231 9.25852 124.117 9.65909 124.106 10.108V12.571C124.106 13.1051 124.211 13.5739 124.421 13.9773C124.631 14.375 124.93 14.6847 125.316 14.9062C125.702 15.1278 126.163 15.2386 126.697 15.2386C127.066 15.2386 127.401 15.1875 127.702 15.0852C128.004 14.983 128.262 14.8324 128.478 14.6335C128.694 14.4347 128.856 14.1903 128.964 13.9006L132.79 14.0114C132.631 14.8693 132.282 15.6165 131.742 16.2528C131.208 16.8835 130.506 17.375 129.637 17.7273C128.768 18.0739 127.762 18.2472 126.62 18.2472ZM143.808 18.2216C142.973 18.2216 142.232 18.0824 141.584 17.804C140.942 17.5199 140.433 17.0937 140.058 16.5256C139.689 15.9517 139.504 15.233 139.504 14.3693C139.504 13.642 139.632 13.0284 139.888 12.5284C140.143 12.0284 140.496 11.6222 140.945 11.3097C141.393 10.9972 141.911 10.7614 142.496 10.6023C143.081 10.4375 143.706 10.3267 144.371 10.2699C145.115 10.2017 145.714 10.1307 146.169 10.0568C146.624 9.97727 146.953 9.86648 147.158 9.72443C147.368 9.5767 147.473 9.36932 147.473 9.10227V9.05966C147.473 8.62216 147.322 8.28409 147.021 8.04545C146.72 7.80682 146.314 7.6875 145.803 7.6875C145.251 7.6875 144.808 7.80682 144.473 8.04545C144.138 8.28409 143.925 8.61364 143.834 9.03409L139.99 8.89773C140.104 8.10227 140.396 7.39205 140.868 6.76705C141.345 6.13636 141.999 5.64205 142.828 5.28409C143.663 4.92045 144.666 4.73864 145.837 4.73864C146.672 4.73864 147.442 4.83807 148.146 5.03693C148.851 5.23011 149.464 5.5142 149.987 5.8892C150.51 6.25852 150.913 6.71307 151.197 7.25284C151.487 7.79261 151.632 8.40909 151.632 9.10227V18H147.712V16.1761H147.609C147.376 16.6193 147.078 16.9943 146.714 17.3011C146.357 17.608 145.933 17.8381 145.445 17.9915C144.962 18.1449 144.416 18.2216 143.808 18.2216ZM145.095 15.4943C145.544 15.4943 145.947 15.4034 146.305 15.2216C146.669 15.0398 146.959 14.7898 147.175 14.4716C147.391 14.1477 147.499 13.7727 147.499 13.3466V12.1023C147.379 12.1648 147.234 12.2216 147.064 12.2727C146.899 12.3239 146.717 12.3722 146.518 12.4176C146.32 12.4631 146.115 12.5028 145.905 12.5369C145.695 12.571 145.493 12.6023 145.3 12.6307C144.908 12.6932 144.572 12.7898 144.294 12.9205C144.021 13.0511 143.811 13.2216 143.663 13.4318C143.521 13.6364 143.45 13.8807 143.45 14.1648C143.45 14.5966 143.604 14.9261 143.911 15.1534C144.223 15.3807 144.618 15.4943 145.095 15.4943ZM158.348 10.5341V18H154.18V4.90909H158.143V7.3125H158.288C158.578 6.51136 159.072 5.88352 159.771 5.42898C160.47 4.96875 161.303 4.73864 162.268 4.73864C163.189 4.73864 163.987 4.94602 164.663 5.36079C165.345 5.76989 165.874 6.34375 166.249 7.08239C166.629 7.81534 166.817 8.6733 166.811 9.65625V18H162.643V10.4744C162.649 9.74716 162.464 9.17898 162.089 8.76989C161.72 8.3608 161.206 8.15625 160.547 8.15625C160.109 8.15625 159.723 8.25284 159.388 8.44602C159.058 8.63352 158.803 8.90341 158.621 9.25568C158.445 9.60795 158.354 10.0341 158.348 10.5341ZM174.173 18.1875C173.207 18.1875 172.329 17.9375 171.539 17.4375C170.749 16.9375 170.119 16.1875 169.647 15.1875C169.175 14.1875 168.94 12.946 168.94 11.4631C168.94 9.9233 169.184 8.65625 169.673 7.66193C170.161 6.66761 170.8 5.93182 171.59 5.45454C172.386 4.97727 173.241 4.73864 174.156 4.73864C174.843 4.73864 175.431 4.85795 175.92 5.09659C176.408 5.32955 176.812 5.63068 177.13 6C177.448 6.36932 177.69 6.75284 177.854 7.15057H177.94V0.545454H182.107V18H177.982V15.8778H177.854C177.678 16.2812 177.428 16.6591 177.104 17.0114C176.781 17.3636 176.374 17.6477 175.886 17.8636C175.403 18.0795 174.832 18.1875 174.173 18.1875ZM175.621 14.9403C176.127 14.9403 176.559 14.7983 176.917 14.5142C177.275 14.2244 177.55 13.8182 177.744 13.2955C177.937 12.7727 178.033 12.1591 178.033 11.4545C178.033 10.7386 177.937 10.1222 177.744 9.60511C177.556 9.08807 177.281 8.69034 176.917 8.41193C176.559 8.13352 176.127 7.99432 175.621 7.99432C175.104 7.99432 174.667 8.13636 174.309 8.42045C173.951 8.70455 173.678 9.10511 173.491 9.62216C173.309 10.1392 173.218 10.75 173.218 11.4545C173.218 12.1591 173.312 12.7727 173.499 13.2955C173.687 13.8182 173.957 14.2244 174.309 14.5142C174.667 14.7983 175.104 14.9403 175.621 14.9403ZM193.589 18.2216C192.754 18.2216 192.013 18.0824 191.365 17.804C190.723 17.5199 190.214 17.0937 189.839 16.5256C189.47 15.9517 189.286 15.233 189.286 14.3693C189.286 13.642 189.413 13.0284 189.669 12.5284C189.925 12.0284 190.277 11.6222 190.726 11.3097C191.175 10.9972 191.692 10.7614 192.277 10.6023C192.862 10.4375 193.487 10.3267 194.152 10.2699C194.896 10.2017 195.496 10.1307 195.95 10.0568C196.405 9.97727 196.734 9.86648 196.939 9.72443C197.149 9.5767 197.254 9.36932 197.254 9.10227V9.05966C197.254 8.62216 197.104 8.28409 196.803 8.04545C196.501 7.80682 196.095 7.6875 195.584 7.6875C195.033 7.6875 194.589 7.80682 194.254 8.04545C193.919 8.28409 193.706 8.61364 193.615 9.03409L189.771 8.89773C189.885 8.10227 190.178 7.39205 190.649 6.76705C191.126 6.13636 191.78 5.64205 192.609 5.28409C193.445 4.92045 194.447 4.73864 195.618 4.73864C196.453 4.73864 197.223 4.83807 197.928 5.03693C198.632 5.23011 199.246 5.5142 199.768 5.8892C200.291 6.25852 200.695 6.71307 200.979 7.25284C201.268 7.79261 201.413 8.40909 201.413 9.10227V18H197.493V16.1761H197.391C197.158 16.6193 196.859 16.9943 196.496 17.3011C196.138 17.608 195.714 17.8381 195.226 17.9915C194.743 18.1449 194.197 18.2216 193.589 18.2216ZM194.876 15.4943C195.325 15.4943 195.729 15.4034 196.087 15.2216C196.45 15.0398 196.74 14.7898 196.956 14.4716C197.172 14.1477 197.28 13.7727 197.28 13.3466V12.1023C197.161 12.1648 197.016 12.2216 196.845 12.2727C196.68 12.3239 196.499 12.3722 196.3 12.4176C196.101 12.4631 195.896 12.5028 195.686 12.5369C195.476 12.571 195.274 12.6023 195.081 12.6307C194.689 12.6932 194.354 12.7898 194.075 12.9205C193.803 13.0511 193.592 13.2216 193.445 13.4318C193.303 13.6364 193.232 13.8807 193.232 14.1648C193.232 14.5966 193.385 14.9261 193.692 15.1534C194.004 15.3807 194.399 15.4943 194.876 15.4943ZM210.072 18.2472C208.692 18.2472 207.507 17.9631 206.518 17.3949C205.536 16.8267 204.78 16.0369 204.251 15.0256C203.723 14.0085 203.459 12.8324 203.459 11.4972C203.459 10.1562 203.723 8.98011 204.251 7.96875C204.786 6.9517 205.544 6.15909 206.527 5.59091C207.516 5.02273 208.695 4.73864 210.064 4.73864C211.274 4.73864 212.328 4.95739 213.226 5.39489C214.129 5.83239 214.834 6.4517 215.339 7.25284C215.851 8.0483 216.121 8.98295 216.149 10.0568H212.254C212.175 9.38636 211.947 8.8608 211.572 8.48011C211.203 8.09943 210.72 7.90909 210.124 7.90909C209.641 7.90909 209.217 8.04545 208.854 8.31818C208.49 8.58523 208.206 8.98295 208.001 9.51136C207.803 10.0341 207.703 10.6818 207.703 11.4545C207.703 12.2273 207.803 12.8807 208.001 13.4148C208.206 13.9432 208.49 14.3437 208.854 14.6165C209.217 14.8835 209.641 15.017 210.124 15.017C210.51 15.017 210.851 14.9347 211.146 14.7699C211.447 14.6051 211.695 14.3636 211.888 14.0455C212.081 13.7216 212.203 13.3295 212.254 12.8693H216.149C216.109 13.9489 215.839 14.892 215.339 15.6989C214.845 16.5057 214.149 17.1335 213.251 17.5824C212.359 18.0256 211.3 18.2472 210.072 18.2472ZM224.393 18.2472C223.012 18.2472 221.827 17.9631 220.839 17.3949C219.856 16.8267 219.1 16.0369 218.572 15.0256C218.043 14.0085 217.779 12.8324 217.779 11.4972C217.779 10.1562 218.043 8.98011 218.572 7.96875C219.106 6.9517 219.864 6.15909 220.847 5.59091C221.836 5.02273 223.015 4.73864 224.384 4.73864C225.594 4.73864 226.648 4.95739 227.546 5.39489C228.45 5.83239 229.154 6.4517 229.66 7.25284C230.171 8.0483 230.441 8.98295 230.469 10.0568H226.575C226.495 9.38636 226.268 8.8608 225.893 8.48011C225.523 8.09943 225.04 7.90909 224.444 7.90909C223.961 7.90909 223.538 8.04545 223.174 8.31818C222.81 8.58523 222.526 8.98295 222.322 9.51136C222.123 10.0341 222.023 10.6818 222.023 11.4545C222.023 12.2273 222.123 12.8807 222.322 13.4148C222.526 13.9432 222.81 14.3437 223.174 14.6165C223.538 14.8835 223.961 15.017 224.444 15.017C224.83 15.017 225.171 14.9347 225.467 14.7699C225.768 14.6051 226.015 14.3636 226.208 14.0455C226.401 13.7216 226.523 13.3295 226.575 12.8693H230.469C230.43 13.9489 230.16 14.892 229.66 15.6989C229.165 16.5057 228.469 17.1335 227.572 17.5824C226.68 18.0256 225.62 18.2472 224.393 18.2472ZM238.713 18.2472C237.338 18.2472 236.156 17.9659 235.168 17.4034C234.185 16.8352 233.426 16.0455 232.892 15.0341C232.364 14.017 232.099 12.8381 232.099 11.4972C232.099 10.1506 232.364 8.97159 232.892 7.96023C233.426 6.94318 234.185 6.15341 235.168 5.59091C236.156 5.02273 237.338 4.73864 238.713 4.73864C240.088 4.73864 241.267 5.02273 242.25 5.59091C243.239 6.15341 243.997 6.94318 244.526 7.96023C245.06 8.97159 245.327 10.1506 245.327 11.4972C245.327 12.8381 245.06 14.017 244.526 15.0341C243.997 16.0455 243.239 16.8352 242.25 17.4034C241.267 17.9659 240.088 18.2472 238.713 18.2472ZM238.739 15.1023C239.239 15.1023 239.662 14.9489 240.009 14.642C240.355 14.3352 240.619 13.9091 240.801 13.3636C240.989 12.8182 241.082 12.1875 241.082 11.4716C241.082 10.7443 240.989 10.108 240.801 9.5625C240.619 9.01705 240.355 8.59091 240.009 8.28409C239.662 7.97727 239.239 7.82386 238.739 7.82386C238.222 7.82386 237.784 7.97727 237.426 8.28409C237.074 8.59091 236.804 9.01705 236.616 9.5625C236.435 10.108 236.344 10.7443 236.344 11.4716C236.344 12.1875 236.435 12.8182 236.616 13.3636C236.804 13.9091 237.074 14.3352 237.426 14.642C237.784 14.9489 238.222 15.1023 238.739 15.1023ZM255.908 12.3494V4.90909H260.067V18H256.095V15.5625H255.959C255.669 16.3636 255.175 17 254.476 17.4716C253.783 17.9375 252.945 18.1705 251.962 18.1705C251.07 18.1705 250.286 17.9659 249.609 17.5568C248.933 17.1477 248.408 16.5767 248.033 15.8438C247.658 15.1051 247.467 14.2415 247.462 13.2528V4.90909H251.629V12.4347C251.635 13.1449 251.822 13.7045 252.192 14.1136C252.561 14.5227 253.064 14.7273 253.7 14.7273C254.115 14.7273 254.487 14.6364 254.817 14.4545C255.152 14.267 255.416 13.9972 255.609 13.6449C255.808 13.2869 255.908 12.8551 255.908 12.3494ZM266.887 10.5341V18H262.719V4.90909H266.683V7.3125H266.827C267.117 6.51136 267.612 5.88352 268.31 5.42898C269.009 4.96875 269.842 4.73864 270.808 4.73864C271.728 4.73864 272.526 4.94602 273.202 5.36079C273.884 5.76989 274.413 6.34375 274.788 7.08239C275.168 7.81534 275.356 8.6733 275.35 9.65625V18H271.183V10.4744C271.188 9.74716 271.004 9.17898 270.629 8.76989C270.259 8.3608 269.745 8.15625 269.086 8.15625C268.648 8.15625 268.262 8.25284 267.927 8.44602C267.597 8.63352 267.342 8.90341 267.16 9.25568C266.984 9.60795 266.893 10.0341 266.887 10.5341ZM285.32 4.90909V7.97727H277.061V4.90909H285.32ZM278.791 1.77273H282.959V13.8835C282.959 14.1392 282.999 14.3466 283.078 14.5057C283.163 14.6591 283.286 14.7699 283.445 14.8381C283.604 14.9006 283.794 14.9318 284.016 14.9318C284.175 14.9318 284.342 14.9176 284.518 14.8892C284.7 14.8551 284.837 14.8267 284.928 14.804L285.558 17.8125C285.359 17.8693 285.078 17.9403 284.714 18.0256C284.357 18.1108 283.928 18.1648 283.428 18.1875C282.45 18.233 281.612 18.1193 280.913 17.8466C280.22 17.5682 279.689 17.1364 279.32 16.5511C278.956 15.9659 278.78 15.2301 278.791 14.3438V1.77273ZM290.727 12.6562V12.3068C290.727 11.3409 290.807 10.571 290.966 9.99716C291.131 9.4233 291.369 8.96307 291.682 8.61648C291.994 8.2642 292.375 7.94318 292.824 7.65341C293.182 7.42614 293.5 7.19602 293.778 6.96307C294.063 6.72443 294.287 6.46875 294.452 6.19602C294.616 5.92329 294.699 5.61364 294.699 5.26704C294.699 4.93182 294.619 4.63636 294.46 4.38068C294.301 4.125 294.082 3.92898 293.804 3.79261C293.531 3.65057 293.227 3.57954 292.892 3.57954C292.557 3.57954 292.241 3.65625 291.946 3.80966C291.656 3.96307 291.418 4.18182 291.23 4.46591C291.048 4.74432 290.955 5.08239 290.949 5.48011H287.028C287.045 4.28693 287.321 3.30966 287.855 2.54829C288.395 1.78693 289.108 1.22443 289.994 0.860795C290.881 0.491477 291.858 0.306818 292.926 0.306818C294.097 0.306818 295.136 0.488636 296.045 0.852272C296.96 1.21591 297.679 1.75284 298.202 2.46307C298.724 3.17329 298.986 4.04261 298.986 5.07102C298.986 5.74716 298.872 6.34375 298.645 6.8608C298.418 7.37784 298.099 7.83523 297.69 8.23295C297.287 8.625 296.813 8.98295 296.267 9.30682C295.841 9.55682 295.486 9.81818 295.202 10.0909C294.923 10.3636 294.713 10.6761 294.571 11.0284C294.429 11.375 294.358 11.8011 294.358 12.3068V12.6562H290.727ZM292.611 18.2472C291.997 18.2472 291.472 18.0312 291.034 17.5994C290.602 17.1676 290.389 16.6449 290.395 16.0312C290.389 15.429 290.602 14.9148 291.034 14.4886C291.472 14.0568 291.997 13.8409 292.611 13.8409C293.196 13.8409 293.71 14.0568 294.153 14.4886C294.597 14.9148 294.821 15.429 294.827 16.0312C294.821 16.4403 294.713 16.8125 294.503 17.1477C294.298 17.483 294.028 17.75 293.693 17.9489C293.364 18.1477 293.003 18.2472 292.611 18.2472Z" fill="#494639"/>
</svg>
