<svg width="163" height="17" viewBox="0 0 163 17" fill="none" xmlns="http://www.w3.org/2000/svg">
<path d="M0.825639 12V1.09091H8.43217V3.23224H3.46236V5.46946H8.04332V7.61612H3.46236V9.85866H8.43217V12H0.825639ZM12.7521 1.09091L14.7443 4.53729H14.8295L16.843 1.09091H19.794L16.5021 6.54545L19.9006 12H16.875L14.8295 8.51634H14.7443L12.6989 12H9.6946L13.0771 6.54545L9.77983 1.09091H12.7521ZM21.1577 12V1.09091H25.6641C26.4808 1.09091 27.1857 1.25071 27.7788 1.57031C28.3754 1.88636 28.8352 2.32848 29.1584 2.89666C29.4815 3.46129 29.6431 4.11825 29.6431 4.86754C29.6431 5.62038 29.478 6.27912 29.1477 6.84375C28.821 7.40483 28.354 7.83984 27.7468 8.14879C27.1396 8.45774 26.4187 8.61222 25.5842 8.61222H22.8036V6.5348H25.0941C25.4918 6.5348 25.8239 6.46555 26.0902 6.32706C26.3601 6.18857 26.5643 5.99503 26.7028 5.74645C26.8413 5.49432 26.9105 5.20135 26.9105 4.86754C26.9105 4.53018 26.8413 4.23899 26.7028 3.99396C26.5643 3.74538 26.3601 3.55362 26.0902 3.41868C25.8203 3.28374 25.4883 3.21626 25.0941 3.21626H23.7944V12H21.1577ZM30.9428 12V1.09091H33.5795V9.85866H38.1179V12H30.9428ZM49.3546 6.54545C49.3546 7.74574 49.1238 8.76314 48.6621 9.59766C48.2005 10.4322 47.5755 11.0661 46.7871 11.4993C46.0023 11.9325 45.1216 12.1491 44.1451 12.1491C43.165 12.1491 42.2825 11.9308 41.4977 11.494C40.7129 11.0572 40.0897 10.4233 39.628 9.59233C39.1699 8.75781 38.9409 7.74219 38.9409 6.54545C38.9409 5.34517 39.1699 4.32777 39.628 3.49325C40.0897 2.65874 40.7129 2.02486 41.4977 1.59162C42.2825 1.15838 43.165 0.941761 44.1451 0.941761C45.1216 0.941761 46.0023 1.15838 46.7871 1.59162C47.5755 2.02486 48.2005 2.65874 48.6621 3.49325C49.1238 4.32777 49.3546 5.34517 49.3546 6.54545ZM46.6593 6.54545C46.6593 5.83523 46.5581 5.23509 46.3556 4.74503C46.1568 4.25497 45.8691 3.88388 45.4927 3.63175C45.1199 3.37962 44.6706 3.25355 44.1451 3.25355C43.623 3.25355 43.1738 3.37962 42.7974 3.63175C42.421 3.88388 42.1316 4.25497 41.9292 4.74503C41.7303 5.23509 41.6309 5.83523 41.6309 6.54545C41.6309 7.25568 41.7303 7.85582 41.9292 8.34588C42.1316 8.83594 42.421 9.20703 42.7974 9.45916C43.1738 9.71129 43.623 9.83736 44.1451 9.83736C44.6706 9.83736 45.1199 9.71129 45.4927 9.45916C45.8691 9.20703 46.1568 8.83594 46.3556 8.34588C46.5581 7.85582 46.6593 7.25568 46.6593 6.54545ZM50.894 12V1.09091H55.4004C56.2172 1.09091 56.9221 1.23828 57.5151 1.53303C58.1117 1.82422 58.5716 2.24325 58.8947 2.79013C59.2179 3.33345 59.3794 3.97798 59.3794 4.72372C59.3794 5.48011 59.2143 6.12287 58.8841 6.65199C58.5538 7.17756 58.085 7.57884 57.4778 7.85582C56.8706 8.12926 56.1515 8.26598 55.3205 8.26598H52.4707V6.18857H54.8304C55.2282 6.18857 55.5602 6.13707 55.8265 6.03409C56.0964 5.92756 56.3006 5.76776 56.4391 5.55469C56.5776 5.33807 56.6468 5.06108 56.6468 4.72372C56.6468 4.38636 56.5776 4.1076 56.4391 3.88743C56.3006 3.66371 56.0964 3.4968 55.8265 3.38672C55.5566 3.27308 55.2246 3.21626 54.8304 3.21626H53.5307V12H50.894ZM57.0357 7.0142L59.7523 12H56.8759L54.2125 7.0142H57.0357ZM60.8256 12V1.09091H68.4322V3.23224H63.4624V5.46946H68.0433V7.61612H63.4624V9.85866H68.4322V12H60.8256ZM83.6026 6.54545C83.6026 7.74574 83.3718 8.76314 82.9102 9.59766C82.4485 10.4322 81.8235 11.0661 81.0352 11.4993C80.2504 11.9325 79.3697 12.1491 78.3931 12.1491C77.413 12.1491 76.5305 11.9308 75.7457 11.494C74.9609 11.0572 74.3377 10.4233 73.8761 9.59233C73.418 8.75781 73.1889 7.74219 73.1889 6.54545C73.1889 5.34517 73.418 4.32777 73.8761 3.49325C74.3377 2.65874 74.9609 2.02486 75.7457 1.59162C76.5305 1.15838 77.413 0.941761 78.3931 0.941761C79.3697 0.941761 80.2504 1.15838 81.0352 1.59162C81.8235 2.02486 82.4485 2.65874 82.9102 3.49325C83.3718 4.32777 83.6026 5.34517 83.6026 6.54545ZM80.9073 6.54545C80.9073 5.83523 80.8061 5.23509 80.6037 4.74503C80.4048 4.25497 80.1172 3.88388 79.7408 3.63175C79.3679 3.37962 78.9187 3.25355 78.3931 3.25355C77.8711 3.25355 77.4219 3.37962 77.0455 3.63175C76.669 3.88388 76.3796 4.25497 76.1772 4.74503C75.9783 5.23509 75.8789 5.83523 75.8789 6.54545C75.8789 7.25568 75.9783 7.85582 76.1772 8.34588C76.3796 8.83594 76.669 9.20703 77.0455 9.45916C77.4219 9.71129 77.8711 9.83736 78.3931 9.83736C78.9187 9.83736 79.3679 9.71129 79.7408 9.45916C80.1172 9.20703 80.4048 8.83594 80.6037 8.34588C80.8061 7.85582 80.9073 7.25568 80.9073 6.54545ZM91.7418 1.09091H94.3732V8.12749C94.3732 8.9407 94.1797 9.64915 93.7926 10.2528C93.4055 10.853 92.8658 11.3182 92.1733 11.6484C91.4808 11.9751 90.6765 12.1385 89.7603 12.1385C88.8335 12.1385 88.0238 11.9751 87.3313 11.6484C86.6388 11.3182 86.1009 10.853 85.7173 10.2528C85.3338 9.64915 85.142 8.9407 85.142 8.12749V1.09091H87.7788V7.89844C87.7788 8.27486 87.8604 8.61044 88.0238 8.90518C88.1907 9.19993 88.4233 9.43075 88.7216 9.59766C89.0199 9.76456 89.3661 9.84801 89.7603 9.84801C90.1545 9.84801 90.4989 9.76456 90.7937 9.59766C91.092 9.43075 91.3246 9.19993 91.4915 8.90518C91.6584 8.61044 91.7418 8.27486 91.7418 7.89844V1.09091ZM96.0258 12V1.09091H100.532C101.349 1.09091 102.054 1.23828 102.647 1.53303C103.244 1.82422 103.703 2.24325 104.027 2.79013C104.35 3.33345 104.511 3.97798 104.511 4.72372C104.511 5.48011 104.346 6.12287 104.016 6.65199C103.686 7.17756 103.217 7.57884 102.61 7.85582C102.002 8.12926 101.283 8.26598 100.452 8.26598H97.6025V6.18857H99.9623C100.36 6.18857 100.692 6.13707 100.958 6.03409C101.228 5.92756 101.432 5.76776 101.571 5.55469C101.709 5.33807 101.779 5.06108 101.779 4.72372C101.779 4.38636 101.709 4.1076 101.571 3.88743C101.432 3.66371 101.228 3.4968 100.958 3.38672C100.688 3.27308 100.356 3.21626 99.9623 3.21626H98.6626V12H96.0258ZM102.168 7.0142L104.884 12H102.008L99.3444 7.0142H102.168ZM109.18 12V1.09091H113.729C114.546 1.09091 115.229 1.20632 115.78 1.43714C116.334 1.66797 116.749 1.99112 117.026 2.4066C117.307 2.82209 117.447 3.30327 117.447 3.85014C117.447 4.26562 117.36 4.63672 117.186 4.96342C117.012 5.28658 116.772 5.55469 116.467 5.76776C116.162 5.98082 115.808 6.12997 115.407 6.2152V6.32173C115.847 6.34304 116.254 6.462 116.627 6.67862C117.003 6.89524 117.305 7.19709 117.532 7.58416C117.76 7.96768 117.873 8.42223 117.873 8.9478C117.873 9.53374 117.724 10.0575 117.426 10.5192C117.128 10.9773 116.696 11.3395 116.131 11.6058C115.567 11.8686 114.881 12 114.075 12H109.18ZM111.817 9.87464H113.447C114.019 9.87464 114.439 9.76634 114.709 9.54972C114.983 9.3331 115.119 9.03125 115.119 8.64418C115.119 8.36364 115.054 8.12216 114.922 7.91974C114.791 7.71378 114.604 7.55575 114.363 7.44567C114.122 7.33203 113.832 7.27521 113.495 7.27521H111.817V9.87464ZM111.817 5.57599H113.276C113.564 5.57599 113.82 5.52805 114.043 5.43217C114.267 5.33629 114.441 5.1978 114.565 5.01669C114.693 4.83558 114.757 4.61719 114.757 4.36151C114.757 3.99574 114.628 3.7081 114.368 3.49858C114.109 3.28906 113.759 3.1843 113.319 3.1843H111.817V5.57599ZM129.438 6.54545C129.438 7.74574 129.207 8.76314 128.745 9.59766C128.283 10.4322 127.658 11.0661 126.87 11.4993C126.085 11.9325 125.205 12.1491 124.228 12.1491C123.248 12.1491 122.366 11.9308 121.581 11.494C120.796 11.0572 120.173 10.4233 119.711 9.59233C119.253 8.75781 119.024 7.74219 119.024 6.54545C119.024 5.34517 119.253 4.32777 119.711 3.49325C120.173 2.65874 120.796 2.02486 121.581 1.59162C122.366 1.15838 123.248 0.941761 124.228 0.941761C125.205 0.941761 126.085 1.15838 126.87 1.59162C127.658 2.02486 128.283 2.65874 128.745 3.49325C129.207 4.32777 129.438 5.34517 129.438 6.54545ZM126.742 6.54545C126.742 5.83523 126.641 5.23509 126.439 4.74503C126.24 4.25497 125.952 3.88388 125.576 3.63175C125.203 3.37962 124.754 3.25355 124.228 3.25355C123.706 3.25355 123.257 3.37962 122.88 3.63175C122.504 3.88388 122.215 4.25497 122.012 4.74503C121.813 5.23509 121.714 5.83523 121.714 6.54545C121.714 7.25568 121.813 7.85582 122.012 8.34588C122.215 8.83594 122.504 9.20703 122.88 9.45916C123.257 9.71129 123.706 9.83736 124.228 9.83736C124.754 9.83736 125.203 9.71129 125.576 9.45916C125.952 9.20703 126.24 8.83594 126.439 8.34588C126.641 7.85582 126.742 7.25568 126.742 6.54545ZM141.274 6.54545C141.274 7.74574 141.043 8.76314 140.581 9.59766C140.119 10.4322 139.494 11.0661 138.706 11.4993C137.921 11.9325 137.041 12.1491 136.064 12.1491C135.084 12.1491 134.201 11.9308 133.417 11.494C132.632 11.0572 132.009 10.4233 131.547 9.59233C131.089 8.75781 130.86 7.74219 130.86 6.54545C130.86 5.34517 131.089 4.32777 131.547 3.49325C132.009 2.65874 132.632 2.02486 133.417 1.59162C134.201 1.15838 135.084 0.941761 136.064 0.941761C137.041 0.941761 137.921 1.15838 138.706 1.59162C139.494 2.02486 140.119 2.65874 140.581 3.49325C141.043 4.32777 141.274 5.34517 141.274 6.54545ZM138.578 6.54545C138.578 5.83523 138.477 5.23509 138.275 4.74503C138.076 4.25497 137.788 3.88388 137.412 3.63175C137.039 3.37962 136.59 3.25355 136.064 3.25355C135.542 3.25355 135.093 3.37962 134.716 3.63175C134.34 3.88388 134.051 4.25497 133.848 4.74503C133.649 5.23509 133.55 5.83523 133.55 6.54545C133.55 7.25568 133.649 7.85582 133.848 8.34588C134.051 8.83594 134.34 9.20703 134.716 9.45916C135.093 9.71129 135.542 9.83736 136.064 9.83736C136.59 9.83736 137.039 9.71129 137.412 9.45916C137.788 9.20703 138.076 8.83594 138.275 8.34588C138.477 7.85582 138.578 7.25568 138.578 6.54545ZM142.813 12V1.09091H145.45V5.70383H145.593L149.2 1.09091H152.305L148.438 5.95952L152.374 12H149.221L146.504 7.712L145.45 9.04368V12H142.813ZM159.125 4.36151C159.089 3.97088 158.931 3.66726 158.651 3.45064C158.374 3.23047 157.978 3.12038 157.463 3.12038C157.122 3.12038 156.838 3.16477 156.61 3.25355C156.383 3.34233 156.213 3.46484 156.099 3.62109C155.985 3.77379 155.927 3.94957 155.923 4.14844C155.916 4.31179 155.948 4.45561 156.019 4.5799C156.094 4.70419 156.2 4.81428 156.339 4.91016C156.481 5.00249 156.651 5.08416 156.85 5.15518C157.049 5.22621 157.273 5.28835 157.521 5.34162L158.459 5.55469C158.999 5.67188 159.474 5.82812 159.886 6.02344C160.302 6.21875 160.65 6.45135 160.93 6.72124C161.214 6.99112 161.429 7.30185 161.575 7.65341C161.721 8.00497 161.795 8.39915 161.799 8.83594C161.795 9.52486 161.621 10.1161 161.277 10.6097C160.932 11.1033 160.437 11.4815 159.79 11.7443C159.148 12.0071 158.372 12.1385 157.463 12.1385C156.55 12.1385 155.755 12.0018 155.076 11.7283C154.398 11.4549 153.871 11.0394 153.494 10.4819C153.118 9.92436 152.924 9.21946 152.914 8.36719H155.439C155.46 8.71875 155.554 9.01172 155.721 9.24609C155.888 9.48047 156.117 9.65803 156.408 9.77876C156.703 9.8995 157.044 9.95987 157.431 9.95987C157.786 9.95987 158.088 9.91193 158.336 9.81605C158.588 9.72017 158.782 9.587 158.917 9.41655C159.052 9.24609 159.121 9.05078 159.125 8.83061C159.121 8.62464 159.057 8.44886 158.933 8.30327C158.809 8.15412 158.617 8.02628 158.358 7.91974C158.102 7.80966 157.775 7.70845 157.377 7.61612L156.238 7.34979C155.293 7.13317 154.549 6.78338 154.006 6.30043C153.462 5.81392 153.192 5.15696 153.196 4.32955C153.192 3.65483 153.374 3.06357 153.739 2.55575C154.105 2.04794 154.611 1.65199 155.257 1.3679C155.904 1.08381 156.641 0.941761 157.468 0.941761C158.313 0.941761 159.047 1.08558 159.668 1.37322C160.293 1.65732 160.778 2.05682 161.122 2.57173C161.467 3.08665 161.642 3.68324 161.65 4.36151H159.125Z" fill="#494639"/>
<path d="M0 14.983H162.31V16.0057H0V14.983Z" fill="#494639"/>
</svg>
