<svg width="333" height="340" viewBox="0 0 333 340" fill="none" xmlns="http://www.w3.org/2000/svg">
<path d="M210.986 5.10966C204.542 6.0529 197.592 7.08102 190.622 8.38963C178.522 10.6602 166.377 13.7874 156.778 18.8075C154.486 20.0073 152.167 21.3043 150.682 23.2903C145.331 30.4144 150.26 47.8496 152.394 56.1066C155.719 68.9842 160.999 81.5999 168.074 93.4519C170.418 97.3808 173.02 101.392 173.488 105.714C175.133 120.902 161.906 112.306 157.858 103.668C154.303 96.0714 152.186 87.9975 150.276 80.0678C148.719 73.5992 147.457 67.1053 146.232 60.6057C144.228 50.0339 145.324 39.3491 141.621 28.984C129.27 35.2727 117.381 42.272 105.864 49.591C100.818 52.7929 89.1418 57.7562 86.4735 62.8794C70.032 94.451 113.826 129.604 135.99 149.934C138.554 152.291 141.144 156.134 138.765 158.262C137.627 159.28 135.787 159.336 134.108 159.221C124.625 158.545 115.497 153.976 108.17 147.955C100.844 141.945 95.0951 134.538 89.688 127.079C81.0943 115.232 72.9442 102.451 69.9234 89.0687C70.3513 88.4605 70.5264 87.7342 70.2749 86.9336C70.1733 86.6144 70.0767 86.3002 69.9751 85.981C69.8299 85.5249 69.5402 85.1834 69.1624 84.93C68.9387 83.3801 68.7968 81.8186 68.7311 80.261C63.4964 82.2894 45.8901 93.9739 37.0908 103.845C34.4016 106.565 32.1571 109.501 30.9404 112.801C29.3021 117.255 29.0771 121.568 30.0836 125.953C30.3873 127.282 30.8527 129.001 31.6938 130.485C32.2175 133.588 32.7523 136.63 34.0821 139.659C36.0741 144.2 39.2914 148.278 43.0853 151.989C43.673 154.006 44.8923 155.723 46.6174 157.344C48.9544 159.536 50.949 161.8 53.0543 164.144C57.6299 169.237 63.1721 173.795 69.4408 177.557C70.5553 178.226 71.6752 178.879 72.7951 179.533C73.9777 180.394 75.1654 181.261 76.353 182.127C78.6979 183.85 81.049 185.507 83.8162 186.648C84.801 187.767 85.7857 188.887 86.7497 190.027C91.625 195.783 103.74 208.457 99.1625 215.951C97.0885 219.347 92.6392 221.011 88.2145 221.207C76.9283 221.712 66.4277 214.237 58.2295 206.453C46.2809 195.105 36.2017 181.928 30.3674 167.432C27.4085 160.09 25.5708 152.409 25.1483 144.786C24.8435 139.259 29.2547 126.782 19.9512 130.564C14.7353 132.684 9.15315 146.643 6.3365 151.193C1.7399 158.615 -2.66013 166.161 -6.7064 173.875C-6.75303 173.921 -6.81484 173.963 -6.86648 174.005C-11.9317 178.99 -10.3198 184.943 -7.21633 190.647C-7.14407 190.895 -7.07184 191.144 -6.97921 191.392C-6.24318 193.371 -4.87691 195.131 -3.8179 196.988C-2.7342 198.89 -1.86017 200.842 -0.504452 202.622C5.43192 210.413 12.1875 217.345 20.4546 223.136C21.7939 224.071 23.0762 225.063 24.3741 226.04C26.026 227.474 27.6521 228.924 29.2366 230.426C33.7044 234.655 48.9705 244.099 47.9854 250.304C47.2511 254.916 42.8493 256.182 38.0871 255.844C37.102 255.657 36.1233 255.393 35.1456 255.068C33.2105 254.428 31.298 253.655 29.4222 252.815C29.1348 252.642 28.8523 252.473 28.5702 252.285C21.7943 247.788 17.7687 241.183 13.4689 235.132C8.20361 227.722 2.26374 220.445 -1.9646 212.559C-3.63409 209.439 -5.01784 204.16 -8.65762 201.587C-9.13158 200.689 -9.68724 199.801 -10.3553 198.936C-11.223 197.82 -12.8495 197.613 -14.2824 198.004C-14.996 196.513 -15.6485 195.021 -16.2043 193.533C-32.0565 230.066 -38.8179 271.266 -12.5858 309.072C-2.84201 323.115 10.9373 333.434 27.6886 339.959C60.4928 352.746 100.113 348.756 128.745 334.193C129.639 333.74 130.544 333.516 131.431 333.47C130.882 334.299 130.753 335.31 131.389 336.278C131.568 336.55 131.757 336.811 131.962 337.058C135.343 341.692 138.606 346.406 142.655 350.673C147.155 355.411 152.748 359.107 158.591 362.733C159.483 363.283 160.385 363.854 161.303 364.43C168.892 369.947 177.582 373.902 186.818 376.289C188.582 376.81 190.393 377.243 192.273 377.507C194.122 377.853 195.976 378.143 197.852 378.371C217.043 380.683 236.797 376.38 253.381 369.164C269.765 362.039 283.443 352.218 294.572 339.527C295.845 338.634 297.048 337.651 298.172 336.547C301.28 333.49 303.077 329.879 305.477 326.497C308.101 322.811 310.983 319.228 313.197 315.381C314.089 313.828 315.142 312.042 315.385 310.296C315.797 309.113 315.879 307.919 315.443 306.831C315.389 306.705 315.33 306.594 315.266 306.478C315.292 306.421 315.324 306.36 315.345 306.298C316.441 303.82 313.378 301.181 310.725 302.331C309.432 302.893 308.125 303.419 306.802 303.93C306.47 303.971 306.138 304.012 305.822 304.058C301.333 304.74 297.178 306.139 292.739 306.931C289.142 307.572 285.607 309.042 282.165 310.501C273.365 311.927 264.282 312.542 255.151 312.394C245.043 312.232 234.917 311.908 224.781 310.911C212.983 309.753 200.236 308.052 189.322 302.743C181.011 298.7 174.184 291.128 176.935 282.606C177.338 281.361 177.926 280.302 178.67 279.398C181.212 279.091 183.912 279.366 186.498 279.425C190.068 279.503 193.457 278.789 196.966 278.827C211.496 278.976 224.057 286.035 237.639 290.468C240.608 291.437 243.715 291.747 246.722 292.537C249.791 293.347 252.608 294.817 255.709 295.494C259.282 296.269 262.929 296.942 266.526 297.493C270.042 298.025 273.397 297.836 276.9 297.91C283.739 298.056 289.903 296.76 296.308 295.135C299.423 294.345 302.558 293.334 305.288 291.827C307.565 290.571 309.468 288.909 311.68 287.609C314.643 285.868 317.43 283.723 319.657 281.236C321.484 279.188 322.081 276.998 322.747 274.649C324.846 270.345 324.193 267.08 328.273 262.83C332.434 239.431 332.958 215.109 331.473 191.203L331.474 191.142C331.33 188.791 328.257 187.365 326.308 188.763C310.815 199.887 291.04 206.357 271.508 210.708C264.637 212.239 257.378 212.533 250.197 212.74C241.08 213 231.661 213.01 222.494 211.385C217.812 210.557 209.12 208.538 209.767 202.74C209.84 202.036 210.009 201.376 210.248 200.766C210.325 200.749 210.412 200.733 210.494 200.711C214.916 199.766 219.231 198.466 223.827 198.42C226.644 198.388 229.077 197.629 231.938 197.713C235.349 197.809 238.77 197.966 242.181 198.051C248.53 198.205 254.857 198.491 261.215 198.787C267.302 199.072 273.012 198.172 278.734 196.838C284.099 195.592 289.55 193.998 294.492 191.822C299.341 189.688 303.414 186.467 308.197 184.349C313.001 182.221 315.609 176.997 318.885 173.341C322.897 168.868 326.239 163.692 327.285 157.776C327.808 154.828 327.79 151.951 326.796 148.957C326.743 148.8 326.674 148.648 326.615 148.496C325.889 144.423 325.086 140.367 324.165 136.327C321.31 123.722 317.275 111.274 313.117 98.879C312.345 96.5845 311.589 94.2845 310.833 91.9744C310.126 89.806 306.978 89.2067 305.715 90.9903L305.674 91.0318C300.206 98.7742 293.694 105.897 286.115 111.964C280.983 116.074 275.678 119.535 269.142 121.671C263.252 123.594 257.173 125.254 250.96 126.367C247.553 126.979 241.005 128.627 237.721 126.089C234.035 123.242 239.306 118.131 241.497 116.572C244.683 114.297 249.128 113.5 253.007 112.457C257.596 111.224 261.662 109.362 265.453 106.823C274.865 100.518 282.921 91.5603 288.699 82.3457C304.52 57.116 287.855 32.9089 280.633 6.09358C280.12 4.18179 279.622 2.26465 279.15 0.34199C256.516 2.32538 233.383 1.81094 211.007 5.08893L210.986 5.10966ZM211.668 230.989C216.876 232.985 224.125 239.354 219.319 244.049C214.239 249.009 203.333 249.044 196.153 248.858C189.183 248.674 180.806 247.913 174.08 244.699C174.366 245.856 172.64 246.741 171.896 245.53C171.291 244.542 170.889 243.612 170.644 242.724C170.433 242.575 170.216 242.441 170.01 242.287C169.099 241.614 169.564 240.608 170.373 240.37C170.705 234.828 178.014 231.558 184.052 230.188C192.448 228.285 203.074 227.7 211.678 230.989L211.668 230.989ZM199.257 57.9609C202.866 60.8243 204.112 65.5306 204.698 69.4939C206.003 78.259 204.827 88.2218 199.811 95.4626C198.381 97.524 196.041 99.7536 192.939 98.5473C189.988 97.4098 188.298 93.9794 187.168 91.5227C185.477 87.8529 184.159 83.8203 183.32 79.7389C182.727 79.5807 182.18 79.0957 182.222 78.4023C182.477 74.16 182.019 69.8582 182.497 65.6325C182.91 61.9836 183.913 57.4434 187.827 55.7734C191.224 54.3208 196.296 55.6112 199.252 57.9559L199.257 57.9609Z" fill="#485545"/>
</svg>
