<svg width="334" height="70" viewBox="0 0 334 70" fill="none" xmlns="http://www.w3.org/2000/svg">
<rect width="334" height="70" rx="35" fill="#494639"/>
<path d="M106.202 50V20.9091H113.233V44.2898H125.335V50H106.202ZM155.3 35.4545C155.3 38.6553 154.684 41.3684 153.453 43.5938C152.222 45.8191 150.555 47.5095 148.453 48.6648C146.36 49.8201 144.012 50.3977 141.408 50.3977C138.794 50.3977 136.441 49.8153 134.348 48.6506C132.255 47.4858 130.593 45.7955 129.362 43.5795C128.141 41.3542 127.53 38.6458 127.53 35.4545C127.53 32.2538 128.141 29.5407 129.362 27.3153C130.593 25.09 132.255 23.3996 134.348 22.2443C136.441 21.089 138.794 20.5114 141.408 20.5114C144.012 20.5114 146.36 21.089 148.453 22.2443C150.555 23.3996 152.222 25.09 153.453 27.3153C154.684 29.5407 155.3 32.2538 155.3 35.4545ZM148.112 35.4545C148.112 33.5606 147.842 31.9602 147.303 30.6534C146.772 29.3466 146.005 28.357 145.001 27.6847C144.007 27.0123 142.809 26.6761 141.408 26.6761C140.016 26.6761 138.818 27.0123 137.814 27.6847C136.81 28.357 136.038 29.3466 135.499 30.6534C134.968 31.9602 134.703 33.5606 134.703 35.4545C134.703 37.3485 134.968 38.9489 135.499 40.2557C136.038 41.5625 136.81 42.5521 137.814 43.2244C138.818 43.8968 140.016 44.233 141.408 44.233C142.809 44.233 144.007 43.8968 145.001 43.2244C146.005 42.5521 146.772 41.5625 147.303 40.2557C147.842 38.9489 148.112 37.3485 148.112 35.4545ZM178.496 30.4119C178.335 29.8153 178.098 29.2898 177.786 28.8352C177.473 28.3712 177.089 27.9782 176.635 27.6562C176.18 27.3343 175.66 27.0928 175.072 26.9318C174.485 26.7614 173.841 26.6761 173.141 26.6761C171.73 26.6761 170.508 27.017 169.476 27.6989C168.453 28.3807 167.662 29.375 167.104 30.6818C166.545 31.9792 166.266 33.5559 166.266 35.4119C166.266 37.2775 166.536 38.8684 167.075 40.1847C167.615 41.5009 168.396 42.5047 169.419 43.196C170.442 43.8873 171.682 44.233 173.141 44.233C174.429 44.233 175.518 44.0246 176.408 43.608C177.307 43.1818 177.989 42.5805 178.453 41.804C178.917 41.0275 179.149 40.1136 179.149 39.0625L180.456 39.2188H173.382V34.0909H185.925V37.9403C185.925 40.5445 185.371 42.7746 184.263 44.6307C183.164 46.4867 181.649 47.9119 179.717 48.9062C177.795 49.9006 175.584 50.3977 173.084 50.3977C170.309 50.3977 167.871 49.7964 165.768 48.5938C163.666 47.3911 162.028 45.6771 160.854 43.4517C159.679 41.2169 159.092 38.5653 159.092 35.4972C159.092 33.1108 159.447 30.9943 160.158 29.1477C160.868 27.2917 161.857 25.7197 163.126 24.4318C164.405 23.1439 165.882 22.1686 167.558 21.5057C169.244 20.8428 171.057 20.5114 172.999 20.5114C174.684 20.5114 176.251 20.7528 177.7 21.2358C179.159 21.7188 180.446 22.4006 181.564 23.2812C182.691 24.1619 183.605 25.2083 184.305 26.4205C185.006 27.6326 185.442 28.9631 185.612 30.4119H178.496ZM197.1 20.9091V50H190.069V20.9091H197.1ZM226.273 20.9091V50H220.307L208.73 33.2102H208.545V50H201.514V20.9091H207.565L219.014 37.6705H219.256V20.9091H226.273Z" fill="white"/>
</svg>
