<svg width="256" height="216" viewBox="0 0 256 216" fill="none" xmlns="http://www.w3.org/2000/svg">
<path d="M0.555054 156.226C2.24433 151.409 3.46941 146.484 4.15678 141.42C4.28075 140.511 4.66966 139.64 4.88418 138.739C7.23894 128.863 9.92664 119.083 12.8531 109.359C15.1637 101.687 17.7348 94.1015 20.0921 86.447C21.8372 80.785 23.3691 75.0578 24.9835 69.3563C27.8699 59.1521 31.3183 49.128 34.7533 39.1013C35.7789 36.1098 36.2313 35.9206 39.3554 36.7291C42.3878 37.515 45.5502 37.3915 48.5868 38.2254C53.09 39.461 57.6793 40.3909 62.1783 41.6393C67.4914 43.1135 72.9788 43.7034 78.3133 45.0591C86.2592 47.078 94.2105 49.0866 102.208 50.8836C110.415 52.7283 118.568 54.7414 126.636 57.1197C129.11 57.8502 131.701 58.1863 134.241 58.6798C134.972 58.8211 135.582 59.0109 136.046 59.7135C138.473 63.3863 141.953 65.3235 146.288 65.9272C148.67 66.2582 151.042 66.385 153.432 66.2625C154.9 66.1864 156.278 65.8955 157.47 64.8714C159.76 62.905 162.428 62.7135 165.356 63.0245C169.653 63.4835 173.504 65.4758 177.689 66.2442C183.545 67.3202 188.886 70.0729 194.678 71.3768C201.97 73.0187 209.23 74.81 216.508 76.5145C221.867 77.7687 227.209 79.1086 232.602 80.1963C238.947 81.4765 245.016 83.6477 251.162 85.583C251.56 85.7081 251.973 85.7979 252.346 85.9753C253.179 86.3738 254.658 85.632 254.873 86.6408C255.169 88.0169 256.17 89.2399 255.75 90.8145C254.256 96.4366 253.82 102.255 252.626 107.947C251.614 112.776 250.455 117.584 250.09 122.603C249.734 127.524 248.683 132.457 247.86 137.373C246.882 143.213 245.966 149.065 244.813 154.87C243.254 162.711 242.242 170.64 240.806 178.497C239.351 186.46 238.157 194.465 237.025 202.479C236.59 205.553 235.965 208.632 235.076 211.602C234.051 215.034 232.849 216.393 228.953 215.444C226.428 214.83 223.863 214.369 221.372 213.649C213.874 211.484 206.085 210.541 198.623 208.263C192.244 206.316 185.542 205.857 179.189 203.854C172.122 201.625 164.719 201.073 157.538 199.452C149.426 197.62 141.231 196.226 133.097 194.515C130.855 194.042 129.019 194.46 126.961 195.595" fill="#485545"/>
<path d="M11.8571 155.89C12.1945 153.059 13.3362 150.49 13.978 147.773C15.4039 141.732 17.616 135.874 18.2605 129.649C18.2925 129.342 18.341 129.021 18.4568 128.736C20.1452 124.575 20.802 120.124 21.9758 115.824C23.226 111.241 24.6949 106.701 25.5143 101.988C26.0263 99.0419 26.9065 96.1091 27.811 93.2858C29.8408 86.9488 31.3226 80.4628 33.4101 74.1533C35.303 68.4314 36.773 62.5801 38.3602 56.7842C40.2211 49.9893 41.6894 43.0894 44.0412 36.4263C45.293 32.88 45.5083 32.7331 48.8307 34.3479C51.2208 35.5087 53.8952 35.3902 56.3709 36.1681C57.284 36.4555 57.8626 35.968 58.0682 34.8996C59.01 30.0088 60.4081 25.2383 61.7929 20.4531C63.1971 15.5975 63.9665 10.5619 65.044 5.61105C65.3742 4.09773 65.7584 2.58629 66.8183 0.812408C68.902 2.91879 70.8714 4.60983 72.4764 6.59651C75.2403 10.0192 78.5915 12.8802 81.9544 15.5486C85.4698 18.3369 89.2535 20.9169 93.3204 23.0323C99.564 26.2796 105.627 29.9104 112.408 31.9632C115.27 32.8279 117.389 34.8911 120.055 36.0735C124.513 38.0501 128.418 40.9993 132.418 43.7815C136.98 46.9546 139.802 51.2521 141.487 56.414C142.062 58.1734 142.521 59.969 143.075 61.8962C150.406 57.2139 158.216 57.8411 166.025 59.2082C174.478 60.6891 182.754 63.0536 191.241 64.3862C191.852 64.4811 192.441 64.725 193.034 64.9214C198.65 66.7808 204.395 68.1278 210.163 69.4099C213.294 70.1071 216.372 71.0863 219.455 71.9482C224.448 73.3455 229.563 74.2912 234.472 76.0458C238.139 77.3564 241.985 78.1651 245.721 79.294C248.469 80.1246 248.423 80.1902 247.871 82.8802C247.455 84.9101 247.756 86.9895 247.445 89.0506C246.771 93.5484 246.575 98.119 245.246 102.512C245.127 102.905 245.026 103.328 245.04 103.734C245.19 108.426 244.178 113.018 243.695 117.647C243.333 121.114 242.598 124.594 241.861 128.023C240.689 133.501 239.969 139.036 239.209 144.571C239.167 144.878 239.298 145.226 239.201 145.503C237.746 149.74 237.26 154.185 236.304 158.53C235.971 160.046 235.6 161.536 235.364 163.083C234.849 166.454 234.01 169.774 233.414 173.134C232.639 177.509 231.969 181.903 231.261 186.29C230.751 189.454 230.295 192.626 229.737 195.783C229.037 199.753 228.219 203.702 227.537 207.674C227.361 208.696 227.05 209.212 225.95 208.968C220.904 207.842 215.771 207.156 210.737 205.937C207.023 205.039 203.201 204.589 199.479 203.712C194.949 202.644 190.328 202.062 185.815 200.88C181.919 199.858 177.89 199.403 173.962 198.449C172.768 198.159 171.529 197.98 170.34 197.614C164.79 195.907 159.055 195.023 153.408 193.745C147.34 192.371 141.212 191.443 135.09 190.438C130.998 189.766 126.961 188.887 122.977 187.734C122.186 187.506 121.36 187.359 120.539 187.273C117.222 186.927 114.15 185.54 111.891 183.387C109.116 180.743 105.82 179.756 102.423 179.066C98.8685 178.345 95.4362 177.174 91.8462 176.589C86.951 175.792 82.2185 174.199 77.2781 173.525C74.6226 173.163 71.9845 172.489 69.4171 171.701C64.5471 170.205 59.5205 169.534 54.5483 168.561C52.2163 168.105 49.888 167.577 47.5749 167.028C42.9432 165.927 38.3097 164.906 33.5961 164.171" fill="#FDF5D0"/>
<path d="M121.967 180.629C127.545 179.167 133.043 178.2 138.672 178.034C146.704 177.797 154.576 178.534 162.43 180.464C170.842 182.531 179.046 185.22 187.066 188.343C194.438 191.211 201.894 193.778 209.359 196.356C215.073 198.329 220.886 199.855 226.926 200.404C227.742 200.479 228.66 200.454 229.111 201.322C229.472 202.017 229.352 202.753 228.91 203.396C228.42 204.108 227.714 204.092 226.955 203.926C221.589 202.744 216.216 201.655 210.916 200.11C205.947 198.662 201.082 196.902 196.101 195.502C193.813 194.86 191.511 194.187 189.422 192.932C188.46 192.355 187.311 192.031 186.208 191.761C182.801 190.925 179.577 189.568 176.275 188.431C172.854 187.251 169.435 186.058 165.887 185.286C164.974 185.088 164.074 184.805 163.199 184.476C156.187 181.847 148.878 180.917 141.463 181.095C136.927 181.205 132.316 180.971 127.877 182.382C126.798 182.724 125.67 182.896 124.964 184.103C126.134 185.115 127.419 184.631 128.551 184.523C135.399 183.882 142.254 184.163 149.083 184.554C153.411 184.8 157.688 185.767 161.904 186.959C176.323 191.037 190.406 196.167 204.729 200.521C210.965 202.417 217.165 204.643 223.659 205.654C224.978 205.859 226.321 205.915 227.677 206.044C228.345 207.004 227.638 207.83 227.418 208.676C227.234 209.383 226.65 209.692 225.971 209.518C219.842 207.955 213.467 207.443 207.492 205.228C199.159 202.139 190.911 198.781 182.351 196.364C175.448 194.414 168.648 192.115 161.737 190.226C156.244 188.724 150.559 187.957 144.836 187.694C139.752 187.462 134.674 187.047 129.578 187.164C128.022 187.199 126.43 187.167 124.925 187.496C122.202 188.093 119.812 187.236 117.377 186.277C116.078 185.766 115.765 184.983 115.932 183.612C116.3 180.575 117.611 177.825 118.348 174.905C120.808 165.144 123.406 155.433 125.204 145.499C126.328 139.289 127.384 133.035 129.022 126.9C130.353 121.904 131.074 116.741 131.98 111.637C132.181 110.504 132.457 109.407 132.757 108.305C134.935 100.295 137.165 92.3057 138.462 84.073C139.204 79.3668 140.506 74.7487 141.562 70.0945C142.02 68.0707 142.48 66.0475 142.955 64.0292C143.32 62.4806 144.386 61.5341 145.756 60.8919C146.501 60.5432 147.239 60.9806 147.015 61.6253C146.556 62.9476 147.433 64.3358 146.315 65.7011C145.12 67.16 145.506 69.2924 145.242 71.1237C144.621 75.4428 143.73 79.6917 142.753 83.9442C141.826 87.9845 141.236 92.097 140.089 96.106C139.236 99.0905 138.861 102.209 138.05 105.207C136.449 111.134 135.69 117.224 134.406 123.208C133.101 129.295 131.989 135.42 130.66 141.503C129.067 148.801 127.09 156.008 125.712 163.359C124.737 168.555 123.282 173.664 122.039 178.808C121.921 179.3 121.638 179.765 121.967 180.635V180.629ZM121.93 185.079C121.898 185.007 121.884 184.897 121.829 184.872C121.776 184.849 121.683 184.909 121.608 184.932C121.641 185.004 121.657 185.113 121.71 185.137C121.763 185.161 121.856 185.1 121.931 185.077L121.93 185.079Z" fill="#9F967F"/>
<path d="M11.7942 158.899C11.6103 157.753 12.6743 156.119 13.6905 156.116C15.4512 156.111 17.2552 156.032 18.9657 156.371C25.7886 157.725 32.7128 158.37 39.5658 159.481C43.4542 160.114 47.2942 160.988 51.1403 161.855C57.0096 163.181 62.939 164.237 68.8358 165.451C73.5078 166.412 78.1466 167.558 82.8394 168.402C88.2528 169.377 93.3161 171.737 98.739 172.41C99.0653 172.011 98.9222 171.778 98.6733 171.59C94.1881 168.205 89.4434 165.257 84.3619 162.836C79.6789 160.606 75.0629 158.236 70.4049 155.955C66.7727 154.176 63.1259 152.428 59.4779 150.684C51.0296 146.642 44.3496 140.563 38.9966 132.947C38.6381 132.437 38.2923 131.92 37.9095 131.429C35.8508 128.788 34.8501 126.231 36.1634 122.622C37.6377 118.569 38.0751 114.137 38.9978 109.879C39.2387 108.765 39.5824 107.672 39.9193 106.581C42.5323 98.144 44.6288 89.5791 46.6051 80.974C47.6253 76.527 48.7009 72.0905 49.6196 67.6198C50.4748 63.4541 51.3415 59.2903 52.2495 55.1363C53.0462 51.4903 53.9013 47.8578 54.7436 44.221C55.1874 42.3018 55.6312 40.3825 56.1272 38.4766C56.344 37.641 56.7347 36.8311 57.8326 37.0871C58.9026 37.3357 58.9538 38.1455 58.7636 39.0529C57.9942 42.708 57.3098 46.3815 56.456 50.0164C54.9622 56.3808 53.7838 62.8081 52.4741 69.2097C51.6838 73.0727 50.8782 76.9448 49.9536 80.773C47.6626 90.258 45.3764 99.7467 42.705 109.139C41.2573 114.227 39.7937 119.314 38.6905 124.5C38.3346 126.169 38.6793 127.446 39.4705 128.909C42.0067 133.587 45.693 137.209 49.7626 140.473C54.729 144.454 60.2729 147.419 66.1541 149.884C72.2674 152.449 78.193 155.43 83.9905 158.696C88.056 160.985 92.2164 163.154 96.0992 165.705C102.032 169.602 106.978 174.6 110.806 181.408C107.55 180.553 105.143 179.61 102.847 178.03C99.5752 175.78 95.6199 174.766 91.803 173.878C84.6371 172.211 77.4858 170.47 70.2649 169.004C61.4241 167.207 52.4529 166.114 43.7015 163.825C37.1756 162.118 30.4283 161.514 23.761 160.531" fill="#9F967F"/>
<path d="M187.077 201.615C169.091 197.652 151.557 194.234 134.061 190.343C135.996 189.249 138.032 189.501 139.974 189.711C144.714 190.227 149.487 190.438 154.184 191.367C160.679 192.653 167.13 194.063 173.276 196.616C174.619 197.175 176.021 197.588 177.394 198.071C180.452 199.148 183.758 199.523 187.077 201.615Z" fill="#FDF5D0"/>
<path d="M121.931 185.078C121.857 185.102 121.766 185.163 121.711 185.138C121.657 185.114 121.642 185.006 121.61 184.934C121.684 184.911 121.777 184.851 121.83 184.875C121.884 184.899 121.899 185.007 121.931 185.08L121.931 185.078Z" fill="white"/>
</svg>
