<svg width="693" height="133" viewBox="0 0 693 133" fill="none" xmlns="http://www.w3.org/2000/svg">
<path d="M6.12 101C4.008 101 2.504 100.552 1.608 99.656C0.776 98.76 0.36 97.384 0.36 95.528V56.072C0.36 54.216 0.776 52.84 1.608 51.944C2.504 51.048 4.008 50.6 6.12 50.6H17.448C19.624 50.6 21.16 51.048 22.056 51.944C22.952 52.84 23.4 54.216 23.4 56.072V64.328H26.856C28.072 64.328 28.904 64.04 29.352 63.464C29.864 62.824 30.12 61.832 30.12 60.488V56.072C30.12 54.216 30.536 52.84 31.368 51.944C32.264 51.048 33.768 50.6 35.88 50.6H47.304C49.48 50.6 50.984 51.048 51.816 51.944C52.712 52.776 53.16 54.152 53.16 56.072V61.064C53.16 63.432 52.712 65.512 51.816 67.304C50.984 69.032 49.544 70.472 47.496 71.624C51.272 73.544 53.16 77.096 53.16 82.28V95.528C53.16 97.384 52.712 98.76 51.816 99.656C50.984 100.552 49.48 101 47.304 101H35.88C33.768 101 32.264 100.552 31.368 99.656C30.536 98.76 30.12 97.384 30.12 95.528V84.2C30.12 82.984 29.896 82.088 29.448 81.512C29 80.936 28.168 80.648 26.952 80.648H23.4V95.528C23.4 97.384 22.952 98.76 22.056 99.656C21.16 100.552 19.624 101 17.448 101H6.12ZM30.2272 45.416C28.1792 45.416 26.8032 45 26.0992 44.168C25.3312 43.272 24.9472 41.864 24.9472 39.944V37.064H21.6832C19.6352 37.064 18.2592 36.648 17.5552 35.816C16.7872 34.92 16.4032 33.512 16.4032 31.592V28.136C16.4032 26.216 16.7872 24.84 17.5552 24.008C18.2592 23.112 19.6352 22.664 21.6832 22.664H33.8752C35.9232 22.664 37.3312 23.112 38.0992 24.008C38.8032 24.84 39.1552 26.216 39.1552 28.136V31.976C45.2992 31.208 49.9712 30.824 53.1712 30.824C54.5792 30.824 55.5712 31.112 56.1472 31.688C56.6593 32.264 56.9153 33.192 56.9153 34.472V39.944C56.9153 41.864 56.5633 43.272 55.8592 44.168C55.0912 45 53.6832 45.416 51.6352 45.416H30.2272ZM83.9873 102.44C66.7073 102.44 58.0673 95.976 58.0673 83.048V76.232C58.0673 74.376 58.4833 73 59.3153 72.104C60.2113 71.208 61.7153 70.76 63.8273 70.76H80.1473C81.6193 70.76 82.6113 71.048 83.1233 71.624C83.6993 72.2 83.9873 73.192 83.9873 74.6V80.168C83.9873 81.576 83.6993 82.568 83.1233 83.144C82.6113 83.72 81.6193 84.008 80.1473 84.008H77.8433C77.8433 84.84 78.1313 85.448 78.7073 85.832C79.3473 86.152 80.4673 86.312 82.0673 86.312C83.8593 86.312 85.2673 86.024 86.2913 85.448C87.3793 84.872 88.1793 83.816 88.6913 82.28C89.2033 80.68 89.4593 78.44 89.4593 75.56C89.4593 71.848 88.6913 69.224 87.1553 67.688C85.6833 66.088 83.0913 65.288 79.3793 65.288C77.3953 65.288 75.3153 65.576 73.1393 66.152C71.0273 66.664 69.2033 67.272 67.6673 67.976C66.5153 68.488 65.7793 68.744 65.4593 68.744C64.7553 68.744 64.1473 68.296 63.6353 67.4L58.8353 59.144C58.2593 58.12 57.9713 57.288 57.9713 56.648C57.9713 55.88 58.3553 55.272 59.1233 54.824C61.8113 53.032 65.4593 51.656 70.0673 50.696C74.6753 49.672 79.4753 49.16 84.4673 49.16C93.6193 49.16 100.563 51.336 105.299 55.688C110.035 60.04 112.403 66.664 112.403 75.56C112.403 84.392 109.939 91.08 105.011 95.624C100.083 100.168 93.0753 102.44 83.9873 102.44ZM142.997 102.44C136.277 102.44 131.093 101.128 127.445 98.504C123.861 95.88 121.301 92.136 119.765 87.272L114.869 71.912C114.549 70.824 114.389 70.056 114.389 69.608C114.389 69.032 114.549 68.584 114.869 68.264C115.253 67.944 115.829 67.656 116.597 67.4L130.901 62.504C131.861 62.12 132.629 61.928 133.205 61.928C133.781 61.928 134.229 62.152 134.549 62.6C134.933 62.984 135.285 63.656 135.605 64.616L141.269 82.472C141.717 83.816 142.165 84.808 142.613 85.448C143.125 86.024 143.861 86.312 144.821 86.312C146.037 86.312 146.933 85.416 147.509 83.624C148.085 81.832 148.373 78.984 148.373 75.08C148.373 71.624 148.085 69.128 147.509 67.592C146.933 66.056 145.973 65.288 144.629 65.288C143.477 65.288 142.421 65.48 141.461 65.864C140.949 66.056 140.533 66.152 140.213 66.152C139.381 66.152 138.773 65.608 138.389 64.52L134.933 55.688C134.677 54.92 134.549 54.408 134.549 54.152C134.549 53.576 134.933 53.064 135.701 52.616C138.133 51.336 140.405 50.44 142.517 49.928C144.629 49.416 147.221 49.16 150.293 49.16C156.757 49.16 161.845 51.432 165.557 55.976C169.269 60.52 171.125 66.888 171.125 75.08C171.125 83.912 168.629 90.696 163.637 95.432C158.709 100.104 151.829 102.44 142.997 102.44ZM190.546 102.44C185.362 102.44 181.298 100.936 178.354 97.928C175.474 94.92 174.034 91.144 174.034 86.6C174.034 80.456 176.082 76.072 180.178 73.448C184.274 70.824 190.162 69.512 197.842 69.512L207.25 69.224C207.25 67.752 206.45 66.632 204.85 65.864C203.25 65.096 200.946 64.712 197.938 64.712C195.762 64.712 193.618 64.936 191.506 65.384C189.458 65.768 187.698 66.312 186.226 67.016C185.202 67.528 184.434 67.784 183.922 67.784C183.346 67.784 182.77 67.336 182.194 66.44L177.394 58.184C176.946 57.288 176.722 56.616 176.722 56.168C176.722 55.4 177.138 54.824 177.97 54.44C180.85 52.776 184.402 51.496 188.626 50.6C192.914 49.64 197.682 49.16 202.93 49.16C206.45 49.16 209.394 49.512 211.762 50.216C213.49 49.192 215.25 48.296 217.042 47.528C218.834 46.696 220.306 46.12 221.458 45.8C222.866 45.48 223.89 45.32 224.53 45.32C226.13 45.32 227.186 46.024 227.698 47.432L230.866 55.976C231.058 56.552 231.154 57.032 231.154 57.416C231.154 58.568 230.45 59.432 229.042 60.008L227.218 60.776C228.178 62.376 228.85 64.072 229.234 65.864C229.618 67.656 229.81 69.864 229.81 72.488V95.528C229.81 97.384 229.362 98.76 228.466 99.656C227.634 100.552 226.13 101 223.954 101H213.01C210.898 101 209.394 100.552 208.498 99.656C207.666 98.76 207.25 97.384 207.25 95.528V84.104H199.378C197.97 84.104 196.946 84.264 196.306 84.584C195.666 84.904 195.346 85.48 195.346 86.312C195.346 87.784 196.242 88.52 198.034 88.52C198.61 88.52 199.538 88.328 200.818 87.944C200.946 87.88 201.138 87.848 201.394 87.848C202.162 87.848 202.642 88.328 202.834 89.288L204.178 97.928C204.306 98.76 204.242 99.368 203.986 99.752C203.73 100.136 203.154 100.488 202.258 100.808C198.994 101.896 195.09 102.44 190.546 102.44ZM271.367 102.44C264.647 102.44 259.335 100.712 255.431 97.256L255.047 98.888C254.791 100.296 253.767 101 251.975 101H241.415C239.815 101 238.567 100.616 237.671 99.848C236.839 99.016 236.423 97.8 236.423 96.2V56.072C236.423 54.152 236.871 52.776 237.767 51.944C238.663 51.048 240.167 50.6 242.279 50.6H253.703C255.815 50.6 257.287 51.048 258.119 51.944C259.015 52.84 259.463 54.216 259.463 56.072V83.432C259.463 84.648 259.815 85.576 260.519 86.216C261.223 86.856 262.247 87.176 263.591 87.176C264.871 87.176 265.863 86.856 266.567 86.216C267.271 85.576 267.623 84.648 267.623 83.432V56.072C267.623 54.152 268.071 52.776 268.967 51.944C269.863 51.048 271.367 50.6 273.479 50.6H284.903C287.015 50.6 288.487 51.048 289.319 51.944C290.215 52.84 290.663 54.216 290.663 56.072V84.488C290.663 90.504 288.903 95.016 285.383 98.024C281.927 100.968 277.255 102.44 271.367 102.44ZM277.872 132.488C275.76 132.488 274.32 132.072 273.552 131.24C272.784 130.408 272.4 129.032 272.4 127.112V121.832H269.04C267.568 121.832 266.608 121.544 266.16 120.968C265.648 120.392 265.392 119.4 265.392 117.992V110.984C265.392 109.576 265.648 108.584 266.16 108.008C266.608 107.432 267.568 107.144 269.04 107.144H284.88C286.992 107.144 288.496 107.592 289.392 108.488C290.224 109.384 290.64 110.76 290.64 112.616V127.112C290.64 129.032 290.256 130.408 289.488 131.24C288.72 132.072 287.28 132.488 285.168 132.488H277.872ZM314.736 102.44C308.528 102.44 303.76 100.232 300.432 95.816C297.104 91.4 295.44 85.448 295.44 77.96C295.44 68.808 297.968 61.736 303.024 56.744C308.08 51.688 315.6 49.16 325.584 49.16C335.184 49.16 342.288 51.176 346.896 55.208C351.504 59.24 353.808 64.744 353.808 71.72V95.528C353.808 97.384 353.36 98.76 352.464 99.656C351.632 100.552 350.128 101 347.952 101H336.528C334.416 101 332.912 100.552 332.016 99.656C331.184 98.76 330.768 97.384 330.768 95.528V72.776C330.768 70.28 330.352 68.424 329.52 67.208C328.688 65.928 327.376 65.288 325.584 65.288C323.152 65.288 321.328 66.312 320.112 68.36C318.96 70.408 318.384 73.896 318.384 78.824C318.384 85.16 319.568 88.328 321.936 88.328C322.896 88.328 323.76 88.168 324.528 87.848C324.656 87.784 324.848 87.752 325.104 87.752C325.872 87.752 326.352 88.232 326.544 89.192L328.272 97.736C328.4 98.568 328.336 99.176 328.08 99.56C327.824 99.88 327.248 100.232 326.352 100.616C324.56 101.256 322.832 101.704 321.168 101.96C319.504 102.28 317.36 102.44 314.736 102.44ZM375.14 102.44C369.956 102.44 365.892 100.936 362.948 97.928C360.068 94.92 358.628 91.144 358.628 86.6C358.628 80.456 360.676 76.072 364.772 73.448C368.868 70.824 374.756 69.512 382.436 69.512L391.844 69.224C391.844 67.752 391.044 66.632 389.444 65.864C387.844 65.096 385.54 64.712 382.531 64.712C380.356 64.712 378.212 64.936 376.1 65.384C374.052 65.768 372.292 66.312 370.82 67.016C369.796 67.528 369.028 67.784 368.516 67.784C367.94 67.784 367.364 67.336 366.788 66.44L361.988 58.184C361.54 57.288 361.316 56.616 361.316 56.168C361.316 55.4 361.732 54.824 362.564 54.44C365.444 52.776 368.996 51.496 373.22 50.6C377.508 49.64 382.276 49.16 387.524 49.16C391.044 49.16 393.988 49.512 396.356 50.216C398.084 49.192 399.844 48.296 401.636 47.528C403.428 46.696 404.9 46.12 406.052 45.8C407.46 45.48 408.484 45.32 409.124 45.32C410.724 45.32 411.78 46.024 412.292 47.432L415.46 55.976C415.652 56.552 415.748 57.032 415.748 57.416C415.748 58.568 415.044 59.432 413.635 60.008L411.812 60.776C412.772 62.376 413.444 64.072 413.828 65.864C414.212 67.656 414.404 69.864 414.404 72.488V95.528C414.404 97.384 413.956 98.76 413.06 99.656C412.228 100.552 410.724 101 408.548 101H397.604C395.492 101 393.988 100.552 393.092 99.656C392.26 98.76 391.844 97.384 391.844 95.528V84.104H383.972C382.564 84.104 381.54 84.264 380.9 84.584C380.26 84.904 379.94 85.48 379.94 86.312C379.94 87.784 380.836 88.52 382.628 88.52C383.204 88.52 384.132 88.328 385.411 87.944C385.54 87.88 385.732 87.848 385.988 87.848C386.756 87.848 387.236 88.328 387.428 89.288L388.772 97.928C388.9 98.76 388.836 99.368 388.58 99.752C388.324 100.136 387.748 100.488 386.852 100.808C383.588 101.896 379.684 102.44 375.14 102.44ZM401.528 132.488C399.416 132.488 397.976 132.072 397.208 131.24C396.44 130.408 396.056 129.032 396.056 127.112V121.832H392.696C391.224 121.832 390.264 121.544 389.816 120.968C389.304 120.392 389.048 119.4 389.048 117.992V110.984C389.048 109.576 389.304 108.584 389.816 108.008C390.264 107.432 391.224 107.144 392.696 107.144H408.536C410.648 107.144 412.152 107.592 413.048 108.488C413.88 109.384 414.296 110.76 414.296 112.616V127.112C414.296 129.032 413.912 130.408 413.144 131.24C412.376 132.072 410.936 132.488 408.824 132.488H401.528ZM438.392 102.44C432.184 102.44 427.416 100.232 424.088 95.816C420.76 91.4 419.096 85.448 419.096 77.96C419.096 68.808 421.624 61.736 426.68 56.744C431.736 51.688 439.256 49.16 449.24 49.16C458.84 49.16 465.944 51.176 470.552 55.208C475.16 59.24 477.464 64.744 477.464 71.72V95.528C477.464 97.384 477.016 98.76 476.12 99.656C475.288 100.552 473.784 101 471.608 101H460.184C458.072 101 456.568 100.552 455.672 99.656C454.84 98.76 454.424 97.384 454.424 95.528V72.776C454.424 70.28 454.008 68.424 453.176 67.208C452.344 65.928 451.032 65.288 449.24 65.288C446.808 65.288 444.984 66.312 443.768 68.36C442.616 70.408 442.04 73.896 442.04 78.824C442.04 85.16 443.224 88.328 445.592 88.328C446.552 88.328 447.416 88.168 448.184 87.848C448.312 87.784 448.504 87.752 448.76 87.752C449.528 87.752 450.008 88.232 450.2 89.192L451.928 97.736C452.056 98.568 451.992 99.176 451.736 99.56C451.48 99.88 450.904 100.232 450.008 100.616C448.216 101.256 446.488 101.704 444.824 101.96C443.16 102.28 441.016 102.44 438.392 102.44ZM489.964 101C487.852 101 486.348 100.552 485.452 99.656C484.62 98.76 484.204 97.384 484.204 95.528V56.072C484.204 54.216 484.62 52.84 485.452 51.944C486.348 51.048 487.852 50.6 489.964 50.6H501.388C503.564 50.6 505.068 51.048 505.9 51.944C506.796 52.776 507.244 54.152 507.244 56.072V84.68H508.492C509.964 84.68 510.956 84.968 511.468 85.544C512.044 86.12 512.332 87.112 512.332 88.52V97.16C512.332 98.568 512.044 99.56 511.468 100.136C510.956 100.712 509.964 101 508.492 101H489.964ZM528.15 101C526.87 101 525.942 100.776 525.366 100.328C524.79 99.816 524.374 98.92 524.118 97.64L514.422 54.248C514.294 53.608 514.23 53.16 514.23 52.904C514.23 51.368 515.158 50.6 517.014 50.6H529.494C530.838 50.6 531.766 50.856 532.278 51.368C532.854 51.88 533.238 52.744 533.43 53.96L536.214 70.472L539.67 58.376C539.99 57.416 540.406 56.712 540.918 56.264C541.494 55.816 542.294 55.592 543.318 55.592H549.75C550.774 55.592 551.542 55.816 552.054 56.264C552.63 56.648 553.078 57.352 553.398 58.376L557.622 70.472L561.942 39.08C562.07 37.928 562.422 37.096 562.998 36.584C563.574 36.008 564.534 35.72 565.878 35.72H578.358C580.214 35.72 581.142 36.488 581.142 38.024C581.142 38.28 581.078 38.728 580.95 39.368L568.95 97.64C568.694 98.92 568.278 99.816 567.702 100.328C567.126 100.776 566.23 101 565.014 101H554.358C553.398 101 552.63 100.808 552.054 100.424C551.478 100.04 551.062 99.368 550.806 98.408L546.486 82.376L542.07 98.408C541.814 99.368 541.398 100.04 540.822 100.424C540.246 100.808 539.478 101 538.518 101H528.15ZM527.105 45.416C525.057 45.416 523.681 45 522.977 44.168C522.209 43.272 521.825 41.864 521.825 39.944V35.528C521.825 33.608 522.209 32.232 522.977 31.4C523.681 30.504 525.057 30.056 527.105 30.056H539.393V27.752C539.393 25.704 539.841 24.328 540.737 23.624C541.569 22.856 542.945 22.472 544.865 22.472H551.585C553.505 22.472 554.913 22.856 555.809 23.624C556.641 24.328 557.057 25.704 557.057 27.752V39.944C557.057 41.864 556.705 43.272 556.001 44.168C555.233 45 553.825 45.416 551.777 45.416H527.105ZM542.012 19.264C540.348 19.264 539.228 18.944 538.652 18.304C538.076 17.6 537.788 16.48 537.788 14.944V13.504H535.196C533.596 13.504 532.508 13.184 531.932 12.544C531.356 11.84 531.068 10.72 531.068 9.184V4.768C531.068 3.232 531.356 2.144 531.932 1.504C532.508 0.799995 533.596 0.447994 535.196 0.447994H544.892C546.492 0.447994 547.58 0.799995 548.156 1.504C548.732 2.144 549.02 3.232 549.02 4.768V6.88C553.692 6.24 557.372 5.92 560.06 5.92C561.212 5.92 561.98 6.144 562.364 6.592C562.812 7.04 563.036 7.776 563.036 8.8V14.944C563.036 16.48 562.748 17.6 562.172 18.304C561.596 18.944 560.508 19.264 558.908 19.264H542.012ZM608.852 102.44C600.404 102.44 593.588 100.936 588.404 97.928C583.22 94.92 580.628 90.664 580.628 85.16C580.628 79.912 582.42 76.264 586.004 74.216C584.276 72.808 582.996 71.272 582.164 69.608C581.396 67.944 581.012 65.896 581.012 63.464C581.012 60.776 581.716 58.344 583.124 56.168C584.532 53.992 586.452 52.296 588.884 51.08C591.38 49.8 594.164 49.16 597.236 49.16C600.116 49.16 602.612 49.416 604.724 49.928C606.9 50.376 608.852 51.144 610.58 52.232C611.22 52.616 611.54 53.16 611.54 53.864C611.54 54.248 611.444 54.728 611.252 55.304L608.948 62.312C608.692 63.016 608.34 63.368 607.892 63.368C607.636 63.368 607.252 63.272 606.74 63.08C606.1 62.824 605.588 62.696 605.204 62.696C604.5 62.696 603.956 62.984 603.572 63.56C603.252 64.136 603.092 64.84 603.092 65.672C603.092 67.656 603.956 68.648 605.684 68.648H607.508C608.98 68.648 609.716 69.384 609.716 70.856V78.44C609.716 79.912 608.98 80.648 607.508 80.648H605.684C604.916 80.648 604.276 80.904 603.764 81.416C603.316 81.864 603.092 82.536 603.092 83.432C603.092 85.352 604.788 86.312 608.18 86.312C610.164 86.312 611.604 85.704 612.5 84.488C613.396 83.272 613.844 81.384 613.844 78.824V56.072C613.844 54.216 614.26 52.84 615.092 51.944C615.988 51.048 617.492 50.6 619.604 50.6H630.548C632.724 50.6 634.228 51.048 635.06 51.944C635.956 52.776 636.404 54.152 636.404 56.072V78.824C636.404 86.056 634.324 91.816 630.164 96.104C626.004 100.328 618.9 102.44 608.852 102.44ZM663.942 102.44C658.822 102.44 654.566 101.96 651.174 101C647.846 100.04 644.742 98.6 641.862 96.68C641.094 96.104 640.71 95.464 640.71 94.76C640.71 94.184 640.998 93.384 641.574 92.36L646.374 84.104C646.886 83.208 647.494 82.76 648.198 82.76C648.774 82.76 649.51 83.016 650.406 83.528C652.134 84.488 653.734 85.192 655.206 85.64C656.742 86.088 658.406 86.312 660.198 86.312C663.462 86.312 665.894 85.576 667.494 84.104C669.094 82.568 669.894 79.848 669.894 75.944C669.894 72.104 669.094 69.384 667.494 67.784C665.958 66.12 663.654 65.288 660.582 65.288C656.934 65.288 653.638 66.248 650.694 68.168C649.926 68.744 649.222 69.032 648.582 69.032C647.814 69.032 647.174 68.552 646.662 67.592L641.862 59.336C641.286 58.312 640.998 57.512 640.998 56.936C640.998 56.232 641.382 55.592 642.15 55.016C645.03 53.096 648.198 51.656 651.654 50.696C655.174 49.672 659.398 49.16 664.326 49.16C673.734 49.16 680.838 51.432 685.638 55.976C690.438 60.52 692.838 67.176 692.838 75.944C692.838 84.776 690.374 91.4 685.446 95.816C680.582 100.232 673.414 102.44 663.942 102.44Z" fill="#494639"/>
</svg>
