<svg width="16" height="10" viewBox="0 0 16 10" fill="none" xmlns="http://www.w3.org/2000/svg">
<path d="M4.64489 9.15447C3.78551 9.15447 3.04688 8.97869 2.42898 8.62713C1.81463 8.27202 1.34055 7.77841 1.00675 7.14631C0.676491 6.51065 0.511364 5.77379 0.511364 4.93572C0.511364 4.0941 0.676491 3.35724 1.00675 2.72514C1.34055 2.08949 1.81463 1.59588 2.42898 1.24432C3.04688 0.889204 3.78551 0.711648 4.64489 0.711648C5.50426 0.711648 6.24112 0.889204 6.85547 1.24432C7.47337 1.59588 7.94744 2.08949 8.2777 2.72514C8.61151 3.35724 8.77841 4.0941 8.77841 4.93572C8.77841 5.77379 8.61151 6.51065 8.2777 7.14631C7.94744 7.77841 7.47337 8.27202 6.85547 8.62713C6.24112 8.97869 5.50426 9.15447 4.64489 9.15447ZM4.66087 7.18892C4.97337 7.18892 5.23793 7.09304 5.45455 6.90128C5.67116 6.70952 5.83629 6.44318 5.94993 6.10227C6.06712 5.76136 6.12571 5.36719 6.12571 4.91974C6.12571 4.4652 6.06712 4.06747 5.94993 3.72656C5.83629 3.38565 5.67116 3.11932 5.45455 2.92756C5.23793 2.7358 4.97337 2.63991 4.66087 2.63991C4.33771 2.63991 4.06428 2.7358 3.84055 2.92756C3.62038 3.11932 3.4517 3.38565 3.33452 3.72656C3.22088 4.06747 3.16406 4.4652 3.16406 4.91974C3.16406 5.36719 3.22088 5.76136 3.33452 6.10227C3.4517 6.44318 3.62038 6.70952 3.84055 6.90128C4.06428 7.09304 4.33771 7.18892 4.66087 7.18892ZM10.1127 9V0.818182H12.6429V2.30966H12.7282C12.8773 1.76989 13.1206 1.36861 13.4579 1.10582C13.7953 0.839488 14.1877 0.706321 14.6351 0.706321C14.7559 0.706321 14.8801 0.715199 15.008 0.732954C15.1358 0.747159 15.2548 0.770241 15.3649 0.802202V3.06605C15.2406 3.02344 15.0772 2.9897 14.8748 2.96484C14.676 2.93999 14.4984 2.92756 14.3422 2.92756C14.0332 2.92756 13.7544 2.9968 13.5059 3.1353C13.2608 3.27024 13.0673 3.46023 12.9252 3.70526C12.7868 3.94673 12.7175 4.23082 12.7175 4.55753V9H10.1127Z" fill="#494639"/>
</svg>
