<svg width="119" height="25" viewBox="0 0 119 25" fill="none" xmlns="http://www.w3.org/2000/svg">
<path d="M1.32102 18V0.545454H8.53125C9.83807 0.545454 10.9659 0.78125 11.9148 1.25284C12.8693 1.71875 13.6051 2.3892 14.1222 3.2642C14.6392 4.13352 14.8977 5.16477 14.8977 6.35795C14.8977 7.56818 14.6335 8.59659 14.1051 9.44318C13.5767 10.2841 12.8267 10.9261 11.8551 11.3693C10.8835 11.8068 9.73295 12.0256 8.40341 12.0256H3.84375V8.7017H7.61932C8.25568 8.7017 8.78693 8.61932 9.21307 8.45455C9.64489 8.28409 9.97159 8.02841 10.1932 7.6875C10.4148 7.34091 10.5256 6.89773 10.5256 6.35795C10.5256 5.81818 10.4148 5.37216 10.1932 5.01989C9.97159 4.66193 9.64489 4.39489 9.21307 4.21875C8.78125 4.03693 8.25 3.94602 7.61932 3.94602H5.53977V18H1.32102ZM11.1477 10.0227L15.4943 18H10.892L6.63068 10.0227H11.1477ZM17.2116 18V0.545454H29.3821V3.97159H21.4304V7.55114H28.7599V10.9858H21.4304V14.5739H29.3821V18H17.2116ZM43.4787 6.24716C43.3821 5.8892 43.2401 5.57386 43.0526 5.30114C42.8651 5.02273 42.6349 4.78693 42.3622 4.59375C42.0895 4.40057 41.777 4.25568 41.4247 4.15909C41.0724 4.05682 40.6861 4.00568 40.2656 4.00568C39.419 4.00568 38.6861 4.21023 38.0668 4.61932C37.4531 5.02841 36.9787 5.625 36.6435 6.40909C36.3082 7.1875 36.1406 8.13352 36.1406 9.24716C36.1406 10.3665 36.3026 11.321 36.6264 12.1108C36.9503 12.9006 37.419 13.5028 38.0327 13.9176C38.6463 14.3324 39.3906 14.5398 40.2656 14.5398C41.0384 14.5398 41.6918 14.4148 42.2259 14.1648C42.7656 13.9091 43.1747 13.5483 43.4531 13.0824C43.7315 12.6165 43.8707 12.0682 43.8707 11.4375L44.6548 11.5312H40.4105V8.45455H47.9361V10.7642C47.9361 12.3267 47.6037 13.6648 46.9389 14.7784C46.2798 15.892 45.3707 16.7472 44.2116 17.3438C43.0582 17.9403 41.7315 18.2386 40.2315 18.2386C38.5668 18.2386 37.1037 17.8778 35.8423 17.1562C34.581 16.4347 33.598 15.4062 32.8935 14.071C32.1889 12.7301 31.8366 11.1392 31.8366 9.2983C31.8366 7.86648 32.0497 6.59659 32.4759 5.48864C32.902 4.375 33.4957 3.43182 34.2571 2.65909C35.0241 1.88636 35.9105 1.30114 36.9162 0.903408C37.9276 0.505681 39.0156 0.306818 40.1804 0.306818C41.1918 0.306818 42.1321 0.451704 43.0014 0.741477C43.8764 1.03125 44.6491 1.44034 45.3196 1.96875C45.9957 2.49716 46.544 3.125 46.9645 3.85227C47.3849 4.57955 47.6463 5.37784 47.7486 6.24716H43.4787ZM54.6413 0.545454V18H50.4226V0.545454H54.6413ZM66.7244 5.77841C66.6676 5.15341 66.4148 4.66761 65.9659 4.32102C65.5227 3.96875 64.8892 3.79261 64.0653 3.79261C63.5199 3.79261 63.0653 3.86364 62.7017 4.00568C62.3381 4.14773 62.0653 4.34375 61.8835 4.59375C61.7017 4.83807 61.608 5.11932 61.6023 5.4375C61.5909 5.69886 61.642 5.92898 61.7557 6.12784C61.875 6.3267 62.0455 6.50284 62.267 6.65625C62.4943 6.80398 62.767 6.93466 63.0852 7.0483C63.4034 7.16193 63.7614 7.26136 64.1591 7.34659L65.6591 7.6875C66.5227 7.875 67.2841 8.125 67.9432 8.4375C68.608 8.75 69.1648 9.12216 69.6136 9.55398C70.0682 9.9858 70.4119 10.483 70.6449 11.0455C70.8778 11.608 70.9972 12.2386 71.0028 12.9375C70.9972 14.0398 70.7188 14.9858 70.1676 15.7756C69.6165 16.5653 68.8239 17.1705 67.7898 17.5909C66.7614 18.0114 65.5199 18.2216 64.0653 18.2216C62.6051 18.2216 61.3324 18.0028 60.2472 17.5653C59.1619 17.1278 58.3182 16.4631 57.7159 15.571C57.1136 14.679 56.804 13.5511 56.7869 12.1875H60.8267C60.8608 12.75 61.0114 13.2188 61.2784 13.5938C61.5455 13.9688 61.9119 14.2528 62.3778 14.446C62.8494 14.6392 63.3949 14.7358 64.0142 14.7358C64.5824 14.7358 65.0653 14.6591 65.4631 14.5057C65.8665 14.3523 66.1761 14.1392 66.392 13.8665C66.608 13.5937 66.7188 13.2812 66.7244 12.929C66.7188 12.5994 66.6165 12.3182 66.4176 12.0852C66.2188 11.8466 65.9119 11.642 65.4972 11.4716C65.0881 11.2955 64.5653 11.1335 63.929 10.9858L62.1051 10.5597C60.5938 10.2131 59.4034 9.65341 58.5341 8.88068C57.6648 8.10227 57.233 7.05114 57.2386 5.72727C57.233 4.64773 57.5227 3.7017 58.108 2.8892C58.6932 2.0767 59.5028 1.44318 60.5369 0.988636C61.571 0.534091 62.75 0.306818 64.0739 0.306818C65.4261 0.306818 66.5994 0.536931 67.5938 0.997158C68.5938 1.4517 69.3693 2.09091 69.9205 2.91477C70.4716 3.73864 70.7528 4.69318 70.7642 5.77841H66.7244ZM72.5625 3.97159V0.545454H87.3153V3.97159H82.0227V18H77.8636V3.97159H72.5625ZM89.3757 18V0.545454H101.546V3.97159H93.5945V7.55114H100.924V10.9858H93.5945V14.5739H101.546V18H89.3757ZM104.188 18V0.545454H111.398C112.705 0.545454 113.833 0.78125 114.782 1.25284C115.737 1.71875 116.472 2.3892 116.989 3.2642C117.506 4.13352 117.765 5.16477 117.765 6.35795C117.765 7.56818 117.501 8.59659 116.972 9.44318C116.444 10.2841 115.694 10.9261 114.722 11.3693C113.751 11.8068 112.6 12.0256 111.271 12.0256H106.711V8.7017H110.487C111.123 8.7017 111.654 8.61932 112.08 8.45455C112.512 8.28409 112.839 8.02841 113.06 7.6875C113.282 7.34091 113.393 6.89773 113.393 6.35795C113.393 5.81818 113.282 5.37216 113.06 5.01989C112.839 4.66193 112.512 4.39489 112.08 4.21875C111.648 4.03693 111.117 3.94602 110.487 3.94602H108.407V18H104.188ZM114.015 10.0227L118.362 18H113.759L109.498 10.0227H114.015Z" fill="#485545"/>
<path d="M0 22.7727H118.754V24.4091H0V22.7727Z" fill="#485545"/>
</svg>
