<svg width="281" height="416" viewBox="0 0 281 416" fill="none" xmlns="http://www.w3.org/2000/svg">
<path d="M304.285 173.263C296.331 175.158 289.269 179.661 283.258 185.1C270.179 196.93 260.948 213.144 254.672 229.45C245.454 253.401 238.727 284.104 238.947 309.721C239.029 319.947 240.121 330.739 246.081 339.044C247.737 341.356 249.928 343.524 252.711 344.11C258.42 345.324 263.092 339.759 266.233 334.833C291.941 294.462 325.692 246.034 334.42 198.199C336.119 188.891 335.621 177.107 325.175 173.442C318.696 171.17 310.873 171.688 304.293 173.259L304.285 173.263Z" fill="#AFC0B1"/>
<path d="M39.7656 241.59C62.311 252.734 88.0746 261.389 111.73 270.108C117.898 272.378 124.378 274.407 130.922 273.818C137.474 273.225 144.133 269.416 146.245 263.195C148.457 256.663 145.281 249.652 142.083 243.539C130.613 221.573 101.689 198.023 83.3319 180.732C66.4628 164.843 40.7323 149.372 17.9649 163.953C-10.1927 181.974 -0.925875 217.368 23.631 232.619C28.858 235.863 34.2362 238.854 39.7539 241.585L39.7656 241.59Z" fill="#AFC0B1"/>
<path d="M208.286 391.471C198.079 377.655 168.231 369.947 155.242 363.983C141.549 357.69 127.261 352.581 112.168 351.132C97.2765 349.699 81.2545 350.642 67.3452 356.58C61.0789 359.256 55.1407 363.05 50.7977 368.367C46.3019 373.862 43.8785 380.691 43.4099 387.729C42.499 401.36 47.257 415.591 59.4839 422.758C78.0924 433.658 99.3788 427.544 119.451 427.13C139.186 426.723 158.714 431.083 178.484 428.495C186.825 427.404 195.316 425.275 202.002 420.168C208.688 415.06 213.196 406.425 211.433 398.213C210.915 395.815 209.822 393.579 208.269 391.477L208.286 391.471Z" fill="#AFC0B1"/>
<path d="M252.096 58.9825C239.107 50.1926 218.651 54.37 206.883 65.9602C186.877 85.6559 147.892 166.593 178.559 189.769C207.821 211.878 255.378 125.432 261.436 102.216C264.814 89.278 265.787 74.2192 257.371 63.8335C255.813 61.9172 254.036 60.3013 252.088 58.9858L252.096 58.9825Z" fill="#AFC0B1"/>
<path d="M91.1754 4.33005C77.1555 12.2576 69.9101 29.0269 66.7507 44.0744C65.0854 52.0048 64.4496 60.2807 65.2713 68.3446C66.2835 78.3749 69.9707 88.28 73.7868 97.5339C84.4138 123.328 99.1475 147.161 114.023 170.666C128.04 192.818 141.797 215.171 155.183 237.71C151.218 231.032 152.84 214.873 152.208 206.849C151.119 192.969 152.542 178.796 153.653 164.96C156.327 131.553 156.752 94.0267 151.697 60.7613C149.305 44.2633 145.135 26.024 133.96 13.0673C123.561 1.01189 105.494 -3.77412 91.1805 4.31836L91.1754 4.33005Z" fill="#AFC0B1"/>
<path d="M342.797 533.101C341.68 533.633 340.305 533.395 339.43 532.437C284.178 471.703 236.324 403.846 197.193 330.76C158.061 257.673 128.125 180.232 108.223 100.591C107.843 99.0485 108.782 97.4846 110.323 97.0941C111.868 96.7119 113.433 97.6477 113.822 99.1866C153.647 258.547 233.14 407.029 343.705 528.559C344.773 529.731 344.684 531.557 343.509 532.624C343.294 532.816 343.058 532.978 342.805 533.098L342.797 533.101Z" fill="#9F967F"/>
<path d="M277.775 453.529C276.582 454.091 275.121 453.781 274.273 452.696C252.762 425.21 249.211 389.508 248.52 361.465C248.379 359.063 248.58 356.69 248.773 354.397C248.963 352.192 249.131 350.102 249.012 348.098C248.993 347.709 249.043 347.321 249.176 346.949L249.649 345.628C252.748 316.408 262.466 289.838 271.871 264.138C272.722 261.816 273.573 259.494 274.421 257.163C274.962 255.67 276.621 254.894 278.115 255.432C279.609 255.97 280.384 257.627 279.843 259.119C278.996 261.45 278.148 263.781 277.297 266.103C267.549 292.743 258.347 317.907 255.363 346.559C255.339 346.792 255.291 347.014 255.212 347.229L254.818 348.334C254.902 350.546 254.714 352.731 254.54 354.852C254.35 357.056 254.182 359.146 254.3 361.15C254.305 361.187 254.307 361.216 254.303 361.256C254.964 388.42 258.354 422.958 278.84 449.138C279.824 450.392 279.592 452.197 278.343 453.178C278.173 453.313 277.986 453.426 277.797 453.511L277.775 453.529Z" fill="#9F967F"/>
<path d="M295.333 477.516C294.094 478.105 292.578 477.731 291.751 476.579C252.11 420.863 180.775 388.079 96.0415 386.627C94.4508 386.602 93.1813 385.287 93.209 383.699C93.2366 382.11 94.5547 380.841 96.1454 380.867C135.646 381.542 174.135 389.423 207.442 403.662C245.118 419.763 275.061 443.17 296.454 473.238C297.377 474.535 297.073 476.33 295.772 477.254C295.63 477.359 295.486 477.436 295.333 477.516Z" fill="#9F967F"/>
<path d="M193.12 319.643C191.831 320.253 190.266 319.83 189.47 318.608C160.33 273.62 114.243 238.633 63.0331 222.61C61.5172 222.139 60.67 220.521 61.1524 219.003C61.6265 217.489 63.2479 216.641 64.7671 217.12C91.0571 225.343 115.726 238.121 138.077 255.091C160.428 272.061 179.349 292.379 194.316 315.48C195.175 316.813 194.799 318.598 193.456 319.461C193.348 319.533 193.238 319.596 193.124 319.651L193.12 319.643Z" fill="#9F967F"/>
<path d="M177.615 284.63C177.421 284.727 177.205 284.793 176.982 284.843C175.429 285.18 173.893 284.194 173.554 282.635C163.194 234.446 171.615 182.427 196.657 139.921C197.471 138.552 199.236 138.092 200.603 138.894C201.972 139.704 202.431 141.467 201.626 142.832C177.308 184.112 169.125 234.633 179.189 281.42C179.475 282.748 178.788 284.067 177.604 284.625L177.615 284.63Z" fill="#9F967F"/>
</svg>
